<svg width="186" height="50" viewBox="0 0 186 50" fill="none" xmlns="http://www.w3.org/2000/svg">
<path d="M55.321 37V19.5455H67.2358V22.9716H59.5398V26.5511H66.4773V29.9858H59.5398V37H55.321ZM72.8395 37.2216C72.0043 37.2216 71.2628 37.0824 70.6151 36.804C69.973 36.5199 69.4645 36.0937 69.0895 35.5256C68.7202 34.9517 68.5355 34.233 68.5355 33.3693C68.5355 32.642 68.6634 32.0284 68.919 31.5284C69.1747 31.0284 69.527 30.6222 69.9759 30.3097C70.4247 29.9972 70.9418 29.7614 71.527 29.6023C72.1122 29.4375 72.7372 29.3267 73.402 29.2699C74.1463 29.2017 74.7457 29.1307 75.2003 29.0568C75.6548 28.9773 75.9844 28.8665 76.1889 28.7244C76.3991 28.5767 76.5043 28.3693 76.5043 28.1023V28.0597C76.5043 27.6222 76.3537 27.2841 76.0526 27.0455C75.7514 26.8068 75.3452 26.6875 74.8338 26.6875C74.2827 26.6875 73.8395 26.8068 73.5043 27.0455C73.169 27.2841 72.956 27.6136 72.8651 28.0341L69.0213 27.8977C69.1349 27.1023 69.4276 26.392 69.8991 25.767C70.3764 25.1364 71.0298 24.642 71.8594 24.2841C72.6946 23.9205 73.6974 23.7386 74.8679 23.7386C75.7031 23.7386 76.473 23.8381 77.1776 24.0369C77.8821 24.2301 78.4957 24.5142 79.0185 24.8892C79.5412 25.2585 79.9446 25.7131 80.2287 26.2528C80.5185 26.7926 80.6634 27.4091 80.6634 28.1023V37H76.7429V35.1761H76.6406C76.4077 35.6193 76.1094 35.9943 75.7457 36.3011C75.3878 36.608 74.9645 36.8381 74.4759 36.9915C73.9929 37.1449 73.4474 37.2216 72.8395 37.2216ZM74.1264 34.4943C74.5753 34.4943 74.9787 34.4034 75.3366 34.2216C75.7003 34.0398 75.9901 33.7898 76.206 33.4716C76.4219 33.1477 76.5298 32.7727 76.5298 32.3466V31.1023C76.4105 31.1648 76.2656 31.2216 76.0952 31.2727C75.9304 31.3239 75.7486 31.3722 75.5497 31.4176C75.3509 31.4631 75.1463 31.5028 74.9361 31.5369C74.7259 31.571 74.5241 31.6023 74.331 31.6307C73.9389 31.6932 73.6037 31.7898 73.3253 31.9205C73.0526 32.0511 72.8423 32.2216 72.6946 32.4318C72.5526 32.6364 72.4815 32.8807 72.4815 33.1648C72.4815 33.5966 72.6349 33.9261 72.9418 34.1534C73.2543 34.3807 73.6491 34.4943 74.1264 34.4943ZM89.3224 37.2472C87.9418 37.2472 86.7571 36.9631 85.7685 36.3949C84.7855 35.8267 84.0298 35.0369 83.5014 34.0256C82.973 33.0085 82.7088 31.8324 82.7088 30.4972C82.7088 29.1562 82.973 27.9801 83.5014 26.9688C84.0355 25.9517 84.794 25.1591 85.777 24.5909C86.7656 24.0227 87.9446 23.7386 89.3139 23.7386C90.5241 23.7386 91.5781 23.9574 92.4759 24.3949C93.3793 24.8324 94.0838 25.4517 94.5895 26.2528C95.1009 27.0483 95.3707 27.983 95.3991 29.0568H91.5043C91.4247 28.3864 91.1974 27.8608 90.8224 27.4801C90.4531 27.0994 89.9702 26.9091 89.3736 26.9091C88.8906 26.9091 88.4673 27.0455 88.1037 27.3182C87.7401 27.5852 87.456 27.983 87.2514 28.5114C87.0526 29.0341 86.9531 29.6818 86.9531 30.4545C86.9531 31.2273 87.0526 31.8807 87.2514 32.4148C87.456 32.9432 87.7401 33.3437 88.1037 33.6165C88.4673 33.8835 88.8906 34.017 89.3736 34.017C89.7599 34.017 90.1009 33.9347 90.3963 33.7699C90.6974 33.6051 90.9446 33.3636 91.1378 33.0455C91.331 32.7216 91.4531 32.3295 91.5043 31.8693H95.3991C95.3594 32.9489 95.0895 33.892 94.5895 34.6989C94.0952 35.5057 93.3991 36.1335 92.5014 36.5824C91.6094 37.0256 90.5497 37.2472 89.3224 37.2472ZM104.921 23.9091V26.9773H96.6626V23.9091H104.921ZM98.3928 20.7727H102.56V32.8835C102.56 33.1392 102.6 33.3466 102.68 33.5057C102.765 33.6591 102.887 33.7699 103.046 33.8381C103.205 33.9006 103.396 33.9318 103.617 33.9318C103.776 33.9318 103.944 33.9176 104.12 33.8892C104.302 33.8551 104.438 33.8267 104.529 33.804L105.16 36.8125C104.961 36.8693 104.68 36.9403 104.316 37.0256C103.958 37.1108 103.529 37.1648 103.029 37.1875C102.052 37.233 101.214 37.1193 100.515 36.8466C99.8217 36.5682 99.2905 36.1364 98.9212 35.5511C98.5575 34.9659 98.3814 34.2301 98.3928 33.3438V20.7727ZM113.018 37.2472C111.643 37.2472 110.461 36.9659 109.472 36.4034C108.489 35.8352 107.731 35.0455 107.197 34.0341C106.668 33.017 106.404 31.8381 106.404 30.4972C106.404 29.1506 106.668 27.9716 107.197 26.9602C107.731 25.9432 108.489 25.1534 109.472 24.5909C110.461 24.0227 111.643 23.7386 113.018 23.7386C114.393 23.7386 115.572 24.0227 116.555 24.5909C117.543 25.1534 118.302 25.9432 118.83 26.9602C119.364 27.9716 119.631 29.1506 119.631 30.4972C119.631 31.8381 119.364 33.017 118.83 34.0341C118.302 35.0455 117.543 35.8352 116.555 36.4034C115.572 36.9659 114.393 37.2472 113.018 37.2472ZM113.043 34.1023C113.543 34.1023 113.967 33.9489 114.313 33.642C114.66 33.3352 114.924 32.9091 115.106 32.3636C115.293 31.8182 115.387 31.1875 115.387 30.4716C115.387 29.7443 115.293 29.108 115.106 28.5625C114.924 28.017 114.66 27.5909 114.313 27.2841C113.967 26.9773 113.543 26.8239 113.043 26.8239C112.526 26.8239 112.089 26.9773 111.731 27.2841C111.379 27.5909 111.109 28.017 110.921 28.5625C110.739 29.108 110.648 29.7443 110.648 30.4716C110.648 31.1875 110.739 31.8182 110.921 32.3636C111.109 32.9091 111.379 33.3352 111.731 33.642C112.089 33.9489 112.526 34.1023 113.043 34.1023ZM121.766 37V23.9091H125.815V26.2955H125.951C126.19 25.4318 126.579 24.7898 127.119 24.3693C127.658 23.9432 128.286 23.7301 129.002 23.7301C129.195 23.7301 129.394 23.7443 129.599 23.7727C129.803 23.7955 129.994 23.8324 130.17 23.8835V27.5057C129.971 27.4375 129.71 27.3835 129.386 27.3438C129.067 27.304 128.783 27.2841 128.533 27.2841C128.039 27.2841 127.593 27.3949 127.195 27.6165C126.803 27.8324 126.494 28.1364 126.266 28.5284C126.045 28.9148 125.934 29.3693 125.934 29.892V37H121.766ZM134.815 41.9091C134.315 41.9091 133.843 41.8693 133.4 41.7898C132.957 41.7159 132.576 41.6165 132.258 41.4915L133.178 38.4659C133.587 38.6023 133.957 38.6818 134.286 38.7045C134.621 38.7273 134.908 38.6733 135.147 38.5426C135.391 38.4176 135.579 38.1932 135.71 37.8693L135.871 37.4773L131.218 23.9091H135.582L137.994 33.25H138.13L140.576 23.9091H144.965L140.031 38.2528C139.792 38.9688 139.454 39.5994 139.016 40.1449C138.585 40.696 138.025 41.1278 137.337 41.4403C136.656 41.7528 135.815 41.9091 134.815 41.9091ZM146.563 37V19.5455H153.773C155.08 19.5455 156.208 19.8011 157.157 20.3125C158.112 20.8182 158.847 21.5256 159.364 22.4347C159.881 23.3381 160.14 24.3892 160.14 25.5881C160.14 26.7926 159.876 27.8466 159.347 28.75C158.825 29.6477 158.077 30.3437 157.106 30.8381C156.134 31.3324 154.981 31.5795 153.646 31.5795H149.197V28.2557H152.862C153.498 28.2557 154.029 28.1449 154.455 27.9233C154.887 27.7017 155.214 27.392 155.435 26.9943C155.657 26.5909 155.768 26.1222 155.768 25.5881C155.768 25.0483 155.657 24.5824 155.435 24.1903C155.214 23.7926 154.887 23.4858 154.455 23.2699C154.023 23.054 153.492 22.946 152.862 22.946H150.782V37H146.563ZM162.219 37V23.9091H166.268V26.2955H166.404C166.643 25.4318 167.032 24.7898 167.572 24.3693C168.112 23.9432 168.739 23.7301 169.455 23.7301C169.648 23.7301 169.847 23.7443 170.052 23.7727C170.256 23.7955 170.447 23.8324 170.623 23.8835V27.5057C170.424 27.4375 170.163 27.3835 169.839 27.3438C169.521 27.304 169.237 27.2841 168.987 27.2841C168.492 27.2841 168.046 27.3949 167.648 27.6165C167.256 27.8324 166.947 28.1364 166.719 28.5284C166.498 28.9148 166.387 29.3693 166.387 29.892V37H162.219ZM177.752 37.2472C176.377 37.2472 175.195 36.9659 174.207 36.4034C173.224 35.8352 172.465 35.0455 171.931 34.0341C171.403 33.017 171.138 31.8381 171.138 30.4972C171.138 29.1506 171.403 27.9716 171.931 26.9602C172.465 25.9432 173.224 25.1534 174.207 24.5909C175.195 24.0227 176.377 23.7386 177.752 23.7386C179.127 23.7386 180.306 24.0227 181.289 24.5909C182.278 25.1534 183.036 25.9432 183.565 26.9602C184.099 27.9716 184.366 29.1506 184.366 30.4972C184.366 31.8381 184.099 33.017 183.565 34.0341C183.036 35.0455 182.278 35.8352 181.289 36.4034C180.306 36.9659 179.127 37.2472 177.752 37.2472ZM177.778 34.1023C178.278 34.1023 178.701 33.9489 179.048 33.642C179.394 33.3352 179.658 32.9091 179.84 32.3636C180.028 31.8182 180.121 31.1875 180.121 30.4716C180.121 29.7443 180.028 29.108 179.84 28.5625C179.658 28.017 179.394 27.5909 179.048 27.2841C178.701 26.9773 178.278 26.8239 177.778 26.8239C177.261 26.8239 176.823 26.9773 176.465 27.2841C176.113 27.5909 175.843 28.017 175.656 28.5625C175.474 29.108 175.383 29.7443 175.383 30.4716C175.383 31.1875 175.474 31.8182 175.656 32.3636C175.843 32.9091 176.113 33.3352 176.465 33.642C176.823 33.9489 177.261 34.1023 177.778 34.1023Z" fill="white"/>
<path d="M20.7128 38.6132C20.3341 38.1224 20.1777 37.4907 20.284 36.8802C20.3934 36.2503 20.7605 35.724 21.2651 35.3981C21.0186 34.9773 20.9044 34.4858 20.9472 33.9931C21.0339 32.9961 21.7129 32.1978 22.623 31.9272C22.3639 31.484 22.2503 30.9643 22.3122 30.4484C22.3992 29.7215 22.811 29.1049 23.3904 28.7337C23.0987 28.3498 22.9232 27.8728 22.9232 27.3542C22.9232 26.8487 23.0904 26.3803 23.371 26C23.2918 26.0041 23.2117 26.0065 23.1304 26.0065C22.3735 26.0065 21.6797 25.8183 21.0696 25.4531C20.9438 25.9247 20.7664 26.4525 20.5165 26.9816C19.937 28.2087 19.1317 29.1172 18.1355 29.691L14.4766 43.2251L20.0209 45.6177L21.7178 39.3412C21.324 39.1991 20.9726 38.9495 20.7128 38.6132Z" fill="#FF9900"/>
<path d="M37.6354 13.056L35.6938 12.5409L35.6932 12.5433L33.2627 11.8988L32.7481 13.8393C32.536 14.3572 30.9912 14.3903 30.4365 14.2404C29.3386 13.9436 28.4496 13.2186 28.5696 12.6355L29.0631 10.7746L24.7874 9.6784C19.7755 8.3491 14.635 11.3342 13.3057 16.3461L15.2006 16.8487C16.7346 11.1742 22.8983 13.4599 22.3225 15.5897L21.7993 17.5253L21.4814 18.7015L21.8296 19.1278L25.5409 23.7282L25.5874 23.7859L26.4984 20.4163L26.5058 20.4181L26.9064 18.9078L26.9069 18.9063L26.9994 18.5572C27.1841 17.9914 28.2585 17.7864 29.4136 18.0987C29.9683 18.2486 31.2927 19.0471 31.2202 19.602L30.7056 21.5426L35.0774 22.7022L37.6352 13.0589L37.6354 13.056Z" fill="#FF9900"/>
<path d="M28.1009 25.793C28.074 25.793 28.0469 25.7939 28.0196 25.7954C27.1989 25.844 26.1714 25.9046 25.3362 25.9537C25.2657 25.9578 25.194 25.962 25.1265 25.9659C24.3915 26.0087 23.8174 26.6176 23.8174 27.354C23.8174 27.7691 23.9993 28.1377 24.2843 28.3912C24.4082 28.371 24.5347 28.3587 24.664 28.3587C24.6713 28.3587 24.6786 28.3594 24.6859 28.3594C24.7267 28.3598 24.7678 28.3607 24.809 28.3632C25.6589 28.4149 26.7501 28.4807 27.6564 28.5351L28.217 28.4858C28.9136 28.4247 29.448 27.8413 29.448 27.1421C29.4483 26.3928 28.8399 25.793 28.1009 25.793Z" fill="#FF9900"/>
<path d="M27.8251 29.4419C27.7745 29.4389 27.7205 29.4357 27.6687 29.4324C26.7497 29.3774 25.6254 29.3096 24.7548 29.2568C24.7242 29.2548 24.6942 29.2539 24.6641 29.2539C24.5877 29.2539 24.5129 29.2612 24.4391 29.2726C24.3266 29.2901 24.2178 29.3196 24.1147 29.3612C23.63 29.5568 23.2661 30.003 23.2001 30.5546C23.1396 31.059 23.3416 31.5287 23.6926 31.8375C23.7105 31.838 23.7274 31.8386 23.7455 31.839C24.6041 31.8632 25.626 31.8915 26.4495 31.9141C26.8855 31.9261 27.3066 32.0646 27.6659 32.3014L27.6943 32.3022C27.7098 32.3027 27.7248 32.3029 27.7401 32.3029C28.4621 32.3029 29.0748 31.7631 29.161 31.0411C29.2587 30.2231 28.6477 29.4914 27.8251 29.4419Z" fill="#FF9900"/>
<path d="M26.4243 32.8085C25.5297 32.7839 24.4039 32.7527 23.5046 32.7274C23.4657 32.7263 23.4256 32.7252 23.3874 32.7239C23.3752 32.7235 23.3618 32.7233 23.3496 32.7228C23.3354 32.7224 23.3212 32.7222 23.307 32.7222C22.5443 32.7222 21.9042 33.3059 21.8377 34.0702C21.8052 34.4434 21.9147 34.7935 22.1188 35.0711C22.2319 35.0533 22.3469 35.0425 22.4648 35.0425C22.5487 35.0425 22.6336 35.0475 22.7175 35.057C22.7668 35.0625 22.8194 35.0686 22.8702 35.0744C23.6677 35.1653 24.6617 35.2781 25.4527 35.3675C25.7674 35.4032 26.0674 35.5095 26.3345 35.6711H26.3863C27.1285 35.6705 27.7472 35.1028 27.8116 34.3634C27.8516 33.9024 27.669 33.4761 27.3554 33.1865C27.1105 32.961 26.7857 32.8184 26.4243 32.8085Z" fill="#FF9900"/>
<path d="M26.052 36.5669C25.8627 36.4006 25.6227 36.2879 25.3522 36.2573C24.9824 36.2154 24.5674 36.1685 24.149 36.121C23.6219 36.0612 23.0899 36.0008 22.6341 35.9487C22.6283 35.9481 22.6219 35.9472 22.6161 35.9466C22.5761 35.9421 22.5362 35.9408 22.4967 35.9397C22.4862 35.9395 22.4754 35.938 22.4649 35.938C22.2537 35.938 22.0517 35.9896 21.8715 36.0806C21.5109 36.2629 21.2387 36.6069 21.1648 37.0331C21.0568 37.655 21.4018 38.2435 21.9507 38.4758C22.0758 38.5286 22.2115 38.5635 22.3549 38.5756L25.0994 38.8078C25.1362 38.8109 25.1725 38.8125 25.2087 38.8125C25.8259 38.8125 26.3629 38.3685 26.4702 37.7501C26.55 37.2916 26.3754 36.851 26.052 36.5669Z" fill="#FF9900"/>
<path d="M16.9748 30.1837L17.113 29.6676L17.2567 29.1312C17.7466 28.9179 18.1602 28.6269 18.5129 28.2918C20.3151 26.5796 20.4743 23.6807 20.4743 23.6807C21.264 24.8013 22.2635 25.1119 23.1293 25.1119C24.2078 25.1119 25.0793 24.6294 25.0793 24.6294L20.9027 19.4519L20.8868 19.4321L15.4009 20.9169L11.4249 28.3002L10.957 28.5496L10.489 28.7992L6.34814 31.0072V31.8713C6.34814 34.7601 7.3882 37.4764 9.1806 39.5896L15.3072 36.4096L16.9748 30.1837Z" fill="#FF9900"/>
<path d="M38.0426 6.30809V0.583473H34.8699V4.96888L23.1183 0L11.0236 5.11383L0 9.67259L0.904139 11.8587L3.55245 10.7636V11.5278V25.1812V31.8712C3.55245 32.0783 3.55783 32.2846 3.56644 32.4904C3.69677 35.6018 4.80479 38.5281 6.64897 40.9036C8.14174 42.8263 10.1157 44.3885 12.4448 45.3937L13.7384 45.952L19.2828 48.3446L23.1183 50L33.7918 45.3937C39.1889 43.0645 42.6841 37.7494 42.6841 31.8712V25.1812V11.5278V10.7877L45.2742 11.8587L46.1781 9.67259L38.0426 6.30809ZM39.8883 11.5278V25.1812V31.8712C39.8883 36.6378 37.0604 40.938 32.684 42.8267L23.1183 46.9549L20.0198 45.6178L14.4755 43.2252L13.5523 42.8269C11.8282 42.0828 10.3459 40.9633 9.18075 39.5897C7.38816 37.4765 6.34832 34.7602 6.34832 31.8715V31.0073V25.1814V11.528V10.1264L23.1183 3.03587L33.781 7.5443L37.6657 9.18696L39.8884 10.1264L39.8883 11.5278Z" fill="white"/>
<path d="M38.0426 6.30809V0.583473H34.8699V4.96888L23.1183 0L11.0236 5.11383L0 9.67259L0.904139 11.8587L3.55245 10.7636V11.5278V25.1812V31.8712C3.55245 32.0783 3.55783 32.2846 3.56644 32.4904C3.69677 35.6018 4.80479 38.5281 6.64897 40.9036C8.14174 42.8263 10.1157 44.3885 12.4448 45.3937L13.7384 45.952L19.2828 48.3446L23.1183 50L33.7918 45.3937C39.1889 43.0645 42.6841 37.7494 42.6841 31.8712V25.1812V11.5278V10.7877L45.2742 11.8587L46.1781 9.67259L38.0426 6.30809ZM39.8883 11.5278V25.1812V31.8712C39.8883 36.6378 37.0604 40.938 32.684 42.8267L23.1183 46.9549L20.0198 45.6178L14.4755 43.2252L13.5523 42.8269C11.8282 42.0828 10.3459 40.9633 9.18075 39.5897C7.38816 37.4765 6.34832 34.7602 6.34832 31.8715V31.0073V25.1814V11.528V10.1264L23.1183 3.03587L33.781 7.5443L37.6657 9.18696L39.8884 10.1264L39.8883 11.5278Z" fill="white"/>
</svg>
