<svg width="21" height="20" viewBox="0 0 21 20" fill="none" xmlns="http://www.w3.org/2000/svg">
<mask id="mask0_1_668" style="mask-type:luminance" maskUnits="userSpaceOnUse" x="0" y="0" width="20" height="20">
<path d="M19.9069 0.631836H0.859253V19.6795H19.9069V0.631836Z" fill="white"/>
</mask>
<g mask="url(#mask0_1_668)">
<path d="M10.383 19.6795C15.6338 19.6795 19.9069 15.4064 19.9069 10.1557C19.9069 4.90486 15.6339 0.631836 10.383 0.631836C5.13223 0.631836 0.859253 4.90486 0.859253 10.1557C0.859253 15.4064 5.13228 19.6795 10.383 19.6795ZM10.383 1.90166C14.9354 1.90166 18.637 5.60323 18.637 10.1557C18.637 14.708 14.9355 18.4097 10.383 18.4097C5.83064 18.4097 2.12907 14.708 2.12907 10.1557C2.12907 5.60323 5.8307 1.90166 10.383 1.90166Z" fill="#FF9900"/>
<path d="M13.1597 13.1907C13.2771 13.2858 13.4168 13.3303 13.5564 13.3303C13.7438 13.3303 13.9279 13.2478 14.0517 13.0922C14.2707 12.8192 14.2262 12.4192 13.9533 12.2001L11.0168 9.85094V5.07631C11.0168 4.7271 10.7311 4.44141 10.3819 4.44141C10.0326 4.44141 9.74695 4.7271 9.74695 5.07631V10.1557C9.74695 10.3493 9.83585 10.5303 9.98504 10.6509L13.1597 13.1907Z" fill="#FF9900"/>
</g>
</svg>
