<svg width="25" height="27" viewBox="0 0 25 27" fill="none" xmlns="http://www.w3.org/2000/svg">
<path d="M7.42535 19.7876C7.12535 19.7876 6.92535 19.6819 6.72535 19.4707C6.32535 19.0483 6.32535 18.4146 6.72535 17.9922L16.7254 7.43115C17.1254 7.00871 17.7254 7.00871 18.1254 7.43115C18.5254 7.85359 18.5254 8.48725 18.1254 8.90969L8.12535 19.4707C7.92535 19.6819 7.72535 19.7876 7.42535 19.7876Z" fill="white"/>
<path d="M17.4254 18.7315C16.8254 18.7315 16.4254 18.309 16.4254 17.6754V9.22652H8.42535C7.82535 9.22652 7.42535 8.80408 7.42535 8.17042C7.42535 7.53676 7.82535 7.11432 8.42535 7.11432H17.4254C18.0254 7.11432 18.4254 7.53676 18.4254 8.17042V17.6754C18.4254 18.309 18.0254 18.7315 17.4254 18.7315Z" fill="white"/>
</svg>
