<svg width="50" height="51" viewBox="0 0 50 51" fill="none" xmlns="http://www.w3.org/2000/svg">
<path d="M40.1925 45.93C40.3731 45.93 40.5546 45.8637 40.6971 45.7305C40.9937 45.4519 41.0088 44.9854 40.7302 44.688C34.0194 37.5345 32.4881 28.8163 31.8747 21.2308C31.7538 19.7651 30.5535 18.6592 29.0827 18.6592H20.6483C19.1962 18.6592 17.9729 19.7909 17.8635 21.2315C17.2501 28.817 15.7173 37.5358 9.00074 44.6879C8.72136 44.9845 8.73648 45.451 9.03309 45.7297C9.3297 46.009 9.79701 45.9946 10.0749 45.6973C17.1039 38.2133 18.6993 29.19 19.3336 21.3467C19.3854 20.6663 19.9628 20.1336 20.6482 20.1336H29.0826C29.7795 20.1336 30.3476 20.6569 30.4044 21.351C31.0387 29.1893 32.6334 38.2118 39.6544 45.6973C39.8 45.8515 39.9959 45.93 40.1925 45.93Z" fill="#FF9900"/>
<path d="M1.89903 48.8816H47.8376C48.2452 48.8816 48.5749 48.5519 48.5749 48.1445C48.5749 47.7369 48.2452 47.4072 47.8376 47.4072H1.89903C1.49155 47.4072 1.16182 47.7369 1.16182 48.1445C1.16172 48.5519 1.49155 48.8816 1.89903 48.8816Z" fill="#FF9900"/>
<path d="M43.7915 8.37228C43.7915 4.19268 39.0455 1.80249 35.6753 4.20656C33.2812 -0.0323868 26.8645 1.42872 26.4849 6.21953C23.6881 7.28694 22.4669 10.5022 23.6684 13.1305C22.6404 13.7078 21.9592 14.813 21.9592 16.0318C21.9592 16.4394 22.289 16.7691 22.6965 16.7691C23.1039 16.7691 23.4336 16.4394 23.4336 16.0318C23.4336 15.1707 24.0449 14.4112 24.8879 14.2262C25.1285 14.1736 25.3272 14.0037 25.4165 13.7741C25.5057 13.5444 25.4748 13.2853 25.3336 13.0829C23.8974 11.0338 24.9259 8.12507 27.3999 7.47154C27.7471 7.3801 27.9759 7.04032 27.9457 6.6832L27.9442 6.609C27.9442 2.66254 33.5824 1.84826 34.6911 5.64211C34.7659 5.89918 34.9739 6.09496 35.2347 6.15404C35.4953 6.21522 35.7675 6.12809 35.946 5.92944C38.1683 3.46409 42.317 5.02621 42.317 8.37228C42.317 11.1602 39.314 12.9122 36.9007 11.576C36.689 11.4595 36.4334 11.4529 36.2167 11.5603C36 11.6675 35.8495 11.8742 35.8142 12.114C35.7055 12.8519 35.2065 13.4134 34.4808 13.6157C33.7479 13.8203 33.0228 13.5912 32.5383 13.0031C32.3907 12.8246 32.1704 12.7202 31.9364 12.7359C31.7046 12.7468 31.4915 12.8649 31.3612 13.0563C30.5865 14.1889 29.2272 14.8052 27.8902 14.6252C27.4771 14.574 27.1148 14.8541 27.0609 15.2572C27.0069 15.6611 27.2897 16.0318 27.6929 16.0866C29.3006 16.3049 30.9255 15.7087 32.0444 14.5452C32.8515 15.1255 33.876 15.3149 34.876 15.0362C35.8486 14.7649 36.6104 14.1054 37.0078 13.232C40.3124 14.3619 43.7915 11.8939 43.7915 8.37228Z" fill="white"/>
<path d="M24.1671 29.1333V32.2125C24.1671 32.6199 24.4968 32.9496 24.9042 32.9496C25.3118 32.9496 25.6415 32.6199 25.6415 32.2125V29.1333C25.6415 28.7257 25.3118 28.396 24.9042 28.396C24.4969 28.396 24.1671 28.7257 24.1671 29.1333Z" fill="#FF9900"/>
<path d="M21.8245 36.1849L19.1577 37.7242C18.8049 37.9279 18.684 38.3786 18.8877 38.7314C19.0935 39.0865 19.5456 39.2032 19.8949 39.0014L22.5618 37.4621C22.9145 37.2584 23.0355 36.8076 22.8318 36.4549C22.6279 36.1021 22.1758 35.9812 21.8245 36.1849Z" fill="#FF9900"/>
<path d="M27.9109 36.227C27.5588 36.0233 27.1074 36.1435 26.9037 36.497C26.7 36.8498 26.8209 37.3005 27.1737 37.5042L29.8397 39.0434C30.1913 39.2466 30.643 39.1266 30.8469 38.7734C31.0507 38.4207 30.9297 37.97 30.5769 37.7663L27.9109 36.227Z" fill="#FF9900"/>
</svg>
