<svg width="50" height="51" viewBox="0 0 50 51" fill="none" xmlns="http://www.w3.org/2000/svg">
<mask id="mask0_1_1466" style="mask-type:luminance" maskUnits="userSpaceOnUse" x="0" y="1" width="50" height="50">
<path d="M49.5902 1.02197H0.409912V50.2023H49.5902V1.02197Z" fill="white"/>
</mask>
<g mask="url(#mask0_1_1466)">
<path d="M21.5526 12.2496C20.6276 12.2496 19.8489 12.9742 19.7956 13.9096C19.7956 13.9101 19.7955 13.9107 19.7954 13.9113L19.462 19.7639C19.4425 20.1071 19.7047 20.4009 20.0476 20.4206C20.3951 20.442 20.6846 20.178 20.7042 19.8349L20.8401 17.4496H25.7411L26.2799 26.8967C26.2988 27.2277 26.5729 27.4834 26.9005 27.4834C26.9124 27.4834 26.9243 27.483 26.9364 27.4824C27.2793 27.4627 27.5415 27.1689 27.522 26.8257C26.6952 12.278 26.8798 15.5258 26.7879 13.9094C26.736 12.997 25.979 12.2495 25.031 12.2495L21.5526 12.2496ZM20.9115 16.2055L21.0378 13.982C21.0547 13.6956 21.3054 13.4949 21.5513 13.4941H25.0299C25.3042 13.4941 25.5298 13.7065 25.5433 13.9823L25.6701 16.2055H20.9115Z" fill="#FF9900"/>
<path d="M40.2581 39.4031H42.6466C43.3794 39.4031 43.9756 38.8069 43.9756 38.0743V35.6859C43.9756 34.953 43.3794 34.3569 42.6466 34.3569H40.2581C39.5255 34.3569 38.9294 34.953 38.9294 35.6859V38.0743C38.9294 38.8069 39.5255 39.4031 40.2581 39.4031ZM40.1736 35.6859C40.1736 35.6391 40.2116 35.601 40.2581 35.601H42.6466C42.6932 35.601 42.7314 35.6391 42.7314 35.6859V38.0742C42.7314 38.1209 42.6932 38.1587 42.6466 38.1587H40.2581C40.2115 38.1587 40.1736 38.1209 40.1736 38.0742V35.6859Z" fill="#222222"/>
<path d="M32.5242 39.4031H34.9127C35.6456 39.4031 36.2417 38.8069 36.2417 38.0743V35.6859C36.2417 34.953 35.6456 34.3569 34.9127 34.3569H32.5242C31.7917 34.3569 31.1956 34.953 31.1956 35.6859V38.0743C31.1956 38.8069 31.7917 39.4031 32.5242 39.4031ZM32.4397 35.6859C32.4397 35.6391 32.4777 35.601 32.5242 35.601H34.9127C34.9594 35.601 34.9975 35.6391 34.9975 35.6859V38.0742C34.9975 38.1209 34.9594 38.1587 34.9127 38.1587H32.5242C32.4776 38.1587 32.4397 38.1209 32.4397 38.0742V35.6859Z" fill="#222222"/>
<path d="M27.179 34.3569H24.7908C24.0578 34.3569 23.4617 34.953 23.4617 35.6859V38.0743C23.4617 38.8069 24.0578 39.4031 24.7908 39.4031H27.179C27.9118 39.4031 28.508 38.8069 28.508 38.0743V35.6859C28.508 34.9529 27.9118 34.3569 27.179 34.3569ZM27.2638 38.0743C27.2638 38.121 27.2256 38.1589 27.179 38.1589H24.7908C24.744 38.1589 24.7059 38.1209 24.7059 38.0743V35.6859C24.7059 35.6392 24.744 35.6011 24.7908 35.6011H27.179C27.2256 35.6011 27.2638 35.6392 27.2638 35.6859V38.0743Z" fill="#222222"/>
<path d="M22.7394 23.7878C22.7394 22.617 21.7868 21.6646 20.6161 21.6646H7.04587C5.87505 21.6646 4.92256 22.6171 4.92256 23.7878V46.1532H3.77259C2.8154 46.1532 2.03687 46.9317 2.03687 47.8887C2.03687 48.8459 2.8155 49.6245 3.77259 49.6245L46.6235 49.6241C47.5803 49.6241 48.3589 48.8456 48.3589 47.8886C48.3589 46.9317 47.5804 46.1531 46.6235 46.1531H45.9413V29.0138C45.9413 28.6989 45.789 28.4007 45.5341 28.2158C45.2791 28.0311 44.9475 27.9801 44.6493 28.0776L38.2074 30.1889V29.0138C38.2074 28.6989 38.0552 28.4007 37.8003 28.2161C37.5449 28.0312 37.214 27.9794 36.9153 28.0776L30.4734 30.1887V29.0138C30.4734 28.6989 30.3212 28.4007 30.0664 28.2161C29.811 28.0312 29.4801 27.9794 29.1813 28.0776L22.7394 30.189V23.7878ZM6.16667 23.7878C6.16667 23.3031 6.56107 22.9087 7.04587 22.9087H20.6161C21.1009 22.9087 21.4953 23.3031 21.4953 23.7878V46.1532H17.7958V42.4122C17.7958 41.3357 16.9201 40.46 15.8435 40.46H11.8185C10.742 40.46 9.86624 41.3357 9.86624 42.4122V46.1532H6.16667V23.7878ZM16.5516 46.1532H11.1103V42.4122C11.1103 42.0218 11.4279 41.7041 11.8185 41.7041H15.8435C16.234 41.7041 16.5517 42.0217 16.5517 42.4122L16.5516 46.1532ZM47.1148 47.8887C47.1148 48.1597 46.8944 48.38 46.6235 48.38L3.77268 48.3803C3.50171 48.3803 3.28107 48.1597 3.28107 47.8887C3.28107 47.6177 3.50171 47.3974 3.77268 47.3974H46.6235C46.8944 47.3974 47.1148 47.6177 47.1148 47.8887ZM44.6972 29.3713V46.1532H38.2074V31.498L44.6972 29.3713ZM36.9631 29.3713V46.1532H30.4733V31.498L36.9631 29.3713ZM22.7396 31.498L29.2292 29.3713V46.1532H22.7396V31.498Z" fill="#FF9900"/>
<path d="M9.46595 27.8522H18.1965C19.2169 27.8522 20.0469 27.0221 20.0469 26.0018C20.0469 24.9814 19.2168 24.1514 18.1965 24.1514H9.46595C8.44583 24.1514 7.61572 24.9815 7.61572 26.0018C7.61572 27.0221 8.44573 27.8522 9.46595 27.8522ZM9.46595 25.3955H18.1965C18.5309 25.3955 18.8028 25.6674 18.8028 26.0018C18.8028 26.3362 18.5309 26.6081 18.1965 26.6081H9.46595C9.13185 26.6081 8.85989 26.3362 8.85989 26.0018C8.85989 25.6674 9.13177 25.3955 9.46595 25.3955Z" fill="#FF9900"/>
<path d="M9.06067 33.6974H11.5045C12.3025 33.6974 12.9518 33.048 12.9518 32.2498V30.5471C12.9518 29.7489 12.3025 29.0996 11.5045 29.0996H9.06067C8.26261 29.0996 7.61328 29.7489 7.61328 30.5471V32.2498C7.61337 33.048 8.26261 33.6974 9.06067 33.6974ZM8.85747 30.5471C8.85747 30.4348 8.94862 30.3437 9.06067 30.3437H11.5045C11.6165 30.3437 11.7076 30.4349 11.7076 30.5471V32.2497C11.7076 32.362 11.6165 32.453 11.5045 32.453H9.06067C8.94862 32.453 8.85747 32.3619 8.85747 32.2497V30.5471Z" fill="#FF9900"/>
<path d="M18.5991 29.0991H16.1554C15.3574 29.0991 14.708 29.7485 14.708 30.5467V32.2494C14.708 33.0476 15.3574 33.6969 16.1554 33.6969H18.5991C19.3973 33.6969 20.0466 33.0476 20.0466 32.2494V30.5467C20.0466 29.7485 19.3973 29.0991 18.5991 29.0991ZM18.8024 32.2494C18.8024 32.3617 18.7113 32.4528 18.5991 32.4528H16.1554C16.0434 32.4528 15.9523 32.3617 15.9523 32.2494V30.5467C15.9523 30.4345 16.0434 30.3435 16.1554 30.3435H18.5991C18.7114 30.3435 18.8024 30.4346 18.8024 30.5467V32.2494Z" fill="#FF9900"/>
<path d="M11.5046 39.5563C12.3026 39.5563 12.9519 38.9069 12.9519 38.1087V36.406C12.9519 35.6078 12.3026 34.9585 11.5046 34.9585H9.06067C8.26261 34.9585 7.61328 35.6078 7.61328 36.406V38.1087C7.61328 38.9069 8.26261 39.5563 9.06067 39.5563H11.5046ZM8.85747 38.1087V36.406C8.85747 36.2937 8.94862 36.2027 9.06067 36.2027H11.5045C11.6165 36.2027 11.7076 36.2938 11.7076 36.406V38.1087C11.7076 38.221 11.6165 38.3121 11.5045 38.3121H9.06067C8.94862 38.3121 8.85747 38.221 8.85747 38.1087Z" fill="#FF9900"/>
<path d="M18.5991 34.9585H16.1554C15.3574 34.9585 14.708 35.6078 14.708 36.406V38.1087C14.708 38.9069 15.3574 39.5563 16.1554 39.5563H18.5991C19.3973 39.5563 20.0466 38.9069 20.0466 38.1087V36.406C20.0466 35.6078 19.3973 34.9585 18.5991 34.9585ZM18.8024 38.1088C18.8024 38.2211 18.7113 38.3121 18.5991 38.3121H16.1554C16.0434 38.3121 15.9523 38.221 15.9523 38.1088V36.4061C15.9523 36.2938 16.0434 36.2028 16.1554 36.2028H18.5991C18.7114 36.2028 18.8024 36.2939 18.8024 36.4061V38.1088Z" fill="#FF9900"/>
<path d="M12.7259 8.71621C12.7259 8.90719 12.756 9.09113 12.8114 9.26391H11.3419C10.3511 9.26391 9.55005 10.0642 9.55005 11.0559C9.55005 12.0438 10.3539 12.8478 11.3419 12.8478H17.7761C18.7618 12.8478 19.5636 12.0438 19.5636 11.0559C19.5636 10.8649 19.5337 10.681 19.4783 10.5082H20.9475C21.9355 10.5082 22.7394 9.70424 22.7394 8.71621C22.7394 7.7282 21.9355 6.92432 20.9475 6.92432H14.5176C13.5271 6.92432 12.7259 7.72465 12.7259 8.71621ZM21.4954 8.71621C21.4954 9.01834 21.2496 9.26391 20.9477 9.26391H17.7762C17.4326 9.26391 17.1541 9.54244 17.1541 9.88596C17.1541 10.2296 17.4326 10.508 17.7762 10.508C18.0758 10.508 18.3196 10.7538 18.3196 11.0557C18.3196 11.3578 18.0759 11.6034 17.7762 11.6034H11.342C11.04 11.6034 10.7943 11.3578 10.7943 11.0557C10.7943 10.756 11.034 10.508 11.342 10.508H14.5178C14.8614 10.508 15.1399 10.2296 15.1399 9.88596C15.1399 9.54244 14.8614 9.26391 14.5178 9.26391C14.2157 9.26391 13.9701 9.01826 13.9701 8.71621C13.9701 8.41192 14.2146 8.16852 14.5178 8.16852H20.9477C21.2496 8.16852 21.4954 8.41414 21.4954 8.71621Z" fill="#FF9900"/>
<path d="M3.43254 7.52296H9.86672C10.8523 7.52296 11.6542 6.71907 11.6542 5.73104C11.6542 5.54008 11.6243 5.35614 11.5689 5.18334H13.038C14.0264 5.18334 14.8302 4.37945 14.8302 3.39143C14.8302 2.4034 14.0265 1.59961 13.0382 1.59961H6.60842C5.61761 1.59961 4.81651 2.39995 4.81651 3.39152C4.81651 3.58248 4.84667 3.76643 4.90199 3.93923H3.43254C2.44519 3.93923 1.64062 4.73601 1.64062 5.73114C1.64072 6.71917 2.44452 7.52296 3.43254 7.52296ZM3.43254 5.18334H6.60832C6.95191 5.18334 7.23038 4.90487 7.23038 4.56128C7.23038 4.21769 6.95191 3.93923 6.60832 3.93923C6.30623 3.93923 6.06062 3.69352 6.06062 3.39152C6.06062 3.08722 6.30517 2.84381 6.60832 2.84381H13.0382C13.3402 2.84381 13.5862 3.08953 13.5862 3.39152C13.5862 3.69352 13.3402 3.93923 13.0382 3.93923H9.86681C9.5232 3.93923 9.24476 4.21769 9.24476 4.56128C9.24476 4.90487 9.5232 5.18334 9.86681 5.18334C10.1664 5.18334 10.4102 5.42905 10.4102 5.73104C10.4102 6.03304 10.1665 6.27876 9.86681 6.27876H3.43254C3.13044 6.27876 2.88483 6.03304 2.88483 5.73104C2.88483 5.4352 3.12017 5.18334 3.43254 5.18334Z" fill="#FF9900"/>
</g>
</svg>
