<svg width="50" height="51" viewBox="0 0 50 51" fill="none" xmlns="http://www.w3.org/2000/svg">
<path d="M9.3821 27.9453C9.77907 27.9453 10.1008 27.6236 10.1008 27.2266V17.9408C10.1008 16.9483 10.595 16.0309 11.425 15.4852C12.0279 15.0858 12.5269 14.5423 12.868 13.9123C13.2112 13.2771 13.3927 12.5598 13.3927 11.8386V10.7893H15.7646V11.8316C15.7646 13.3125 16.4985 14.6791 17.7291 15.488C18.5181 16.0028 19.056 16.9058 19.056 17.9408V27.2123C19.056 27.6092 19.3778 27.931 19.7747 27.931C20.1717 27.931 20.4934 27.6092 20.4934 27.2123V17.9408C20.4934 16.4282 19.7169 15.0682 18.5166 14.2858C17.6933 13.7446 17.202 12.8273 17.202 11.8317C17.2019 11.759 17.196 8.01096 17.1964 8.24782C17.1964 7.24241 16.3784 6.42432 15.3729 6.42432H13.7775C12.7718 6.42432 11.9537 7.24232 11.9537 8.24782C11.9537 8.32054 11.9553 12.0755 11.9552 11.8386C11.9552 12.3223 11.8334 12.8031 11.6035 13.2288C11.3747 13.6513 11.0382 14.0173 10.6332 14.2858C9.39964 15.0965 8.66333 16.4627 8.66333 17.9408V27.2266C8.66333 27.6236 8.98522 27.9453 9.3821 27.9453ZM13.3913 8.24773C13.3913 8.03468 13.5646 7.86168 13.7778 7.86168H15.3731C15.5862 7.86168 15.7592 8.03468 15.7592 8.24773V9.35004H13.3914L13.3913 8.24773Z" fill="#FF9900"/>
<path d="M24.1659 27.9311C24.5628 27.9311 24.8846 27.6093 24.8846 27.2124V17.9409C24.8846 16.9484 25.3787 16.031 26.2083 15.4853C26.8112 15.0863 27.3102 14.5427 27.6521 13.9124C27.9953 13.2768 28.1764 12.5595 28.1764 11.8386V10.7894H30.5481V11.8317C30.5481 13.315 31.2851 14.682 32.5161 15.4857C32.9239 15.7556 33.2594 16.1227 33.4904 16.5536C33.7192 16.9719 33.8399 17.4517 33.8399 17.9409V27.2124C33.8399 27.6093 34.1614 27.9311 34.5586 27.9311C34.9559 27.9311 35.2773 27.6093 35.2773 27.2124V17.9409C35.2773 17.2109 35.0955 16.4929 34.7543 15.8696C34.4146 15.2351 33.9149 14.6877 33.3056 14.2845C32.4788 13.7447 31.9854 12.8277 31.9854 11.8317C31.9852 11.759 31.9809 8.01096 31.9811 8.24782C31.9811 7.24241 31.1634 6.42432 30.1576 6.42432H28.5624C27.5566 6.42432 26.7389 7.24232 26.7389 8.24782C26.7389 8.38451 26.7389 11.9665 26.7389 11.8386C26.7389 12.3223 26.6175 12.8031 26.3879 13.2284C26.1584 13.6513 25.8223 14.0173 25.4165 14.2858C24.1833 15.0965 23.447 16.463 23.447 17.9408V27.2123C23.4471 27.6092 23.769 27.9311 24.1659 27.9311ZM28.1764 8.24782C28.1764 8.03478 28.3497 7.86178 28.5624 7.86178H30.1578C30.3705 7.86178 30.5438 8.03478 30.5438 8.24782V9.35012H28.1764V8.24782Z" fill="#FF9900"/>
<path d="M9.85345 44.6904H40.5303C44.7549 44.6904 48.1914 41.2536 48.1914 37.0292C48.1914 32.805 44.755 29.3682 40.5303 29.3682H9.85345C5.62915 29.3682 2.19238 32.805 2.19238 37.0292C2.19238 41.2536 5.62924 44.6904 9.85345 44.6904ZM9.85345 30.8056H40.5303C43.9617 30.8056 46.7539 33.5974 46.7539 37.0292C46.7539 40.4611 43.9619 43.2529 40.5303 43.2529H9.85345C6.4216 43.2529 3.62986 40.4611 3.62986 37.0292C3.62986 33.5974 6.4216 30.8056 9.85345 30.8056Z" fill="#FF9900"/>
<path d="M11.3552 38.8044C11.752 38.8044 12.0739 38.4826 12.0739 38.0857V35.9731C12.0739 35.5761 11.752 35.2544 11.3552 35.2544C10.9582 35.2544 10.6365 35.5761 10.6365 35.9731V38.0857C10.6363 38.4825 10.9582 38.8044 11.3552 38.8044Z" fill="#222222"/>
<path d="M18.2736 38.8044C18.6705 38.8044 18.9923 38.4826 18.9923 38.0857V35.9731C18.9923 35.5761 18.6705 35.2544 18.2736 35.2544C17.8767 35.2544 17.5549 35.5761 17.5549 35.9731V38.0857C17.5548 38.4825 17.8767 38.8044 18.2736 38.8044Z" fill="#222222"/>
<path d="M25.1928 38.8044C25.5901 38.8044 25.9115 38.4826 25.9115 38.0857V35.9731C25.9115 35.5761 25.59 35.2544 25.1928 35.2544C24.7959 35.2544 24.4741 35.5761 24.4741 35.9731V38.0857C24.474 38.4825 24.7959 38.8044 25.1928 38.8044Z" fill="#222222"/>
<path d="M32.1113 38.8044C32.5086 38.8044 32.83 38.4826 32.83 38.0857V35.9731C32.83 35.5761 32.5085 35.2544 32.1113 35.2544C31.714 35.2544 31.3926 35.5761 31.3926 35.9731V38.0857C31.3926 38.4825 31.7141 38.8044 32.1113 38.8044Z" fill="#222222"/>
<path d="M39.0295 38.8044C39.4267 38.8044 39.7482 38.4826 39.7482 38.0857V35.9731C39.7482 35.5761 39.4266 35.2544 39.0295 35.2544C38.6322 35.2544 38.3108 35.5761 38.3108 35.9731V38.0857C38.3108 38.4825 38.6322 38.8044 39.0295 38.8044Z" fill="#222222"/>
</svg>
