<svg width="50" height="51" viewBox="0 0 50 51" fill="none" xmlns="http://www.w3.org/2000/svg">
<path d="M40.2643 46.7713C40.4456 46.7713 40.6277 46.7048 40.7706 46.5712C41.0682 46.2917 41.0834 45.8237 40.8038 45.5253C34.0711 38.3483 32.5347 29.6016 31.9193 21.9912C31.798 20.5206 30.5938 19.4111 29.1182 19.4111H20.6561C19.1992 19.4111 17.972 20.5465 17.8622 21.992C17.2468 29.6023 15.7089 38.3497 8.9704 45.5251C8.69007 45.8228 8.70524 46.2909 9.00286 46.5704C9.3004 46.8506 9.76925 46.8361 10.048 46.5379C17.1001 39.0293 18.7007 29.9765 19.3371 22.1074C19.3891 21.4249 19.9684 20.8904 20.6561 20.8904H29.118C29.8173 20.8904 30.3871 21.4155 30.4442 22.1118C31.0806 29.9757 32.6806 39.0279 39.7246 46.5379C39.8706 46.6926 40.0671 46.7713 40.2643 46.7713Z" fill="#FF9900"/>
<path d="M1.84485 49.7326H47.9341C48.3429 49.7326 48.6738 49.4018 48.6738 48.993C48.6738 48.5842 48.3429 48.2534 47.9341 48.2534H1.84485C1.43604 48.2534 1.10522 48.5842 1.10522 48.993C1.10513 49.4018 1.43604 49.7326 1.84485 49.7326Z" fill="#FF9900"/>
<path d="M43.875 9.09044C43.875 4.89713 39.1134 2.49911 35.7322 4.91106C33.3302 0.658209 26.8925 2.12411 26.5118 6.93062C23.7058 8.00154 22.4805 11.2274 23.686 13.8642C22.6546 14.4435 21.9712 15.5522 21.9712 16.7751C21.9712 17.184 22.302 17.5148 22.7109 17.5148C23.1196 17.5148 23.4505 17.184 23.4505 16.7751C23.4505 15.9113 24.0637 15.1492 24.9096 14.9636C25.1509 14.9108 25.3501 14.7403 25.4398 14.5099C25.5293 14.2795 25.4982 14.0195 25.3567 13.8165C23.9158 11.7607 24.9476 8.84241 27.4297 8.18674C27.7779 8.095 28.0076 7.75411 27.9773 7.39582L27.9759 7.32138C27.9759 3.36198 33.6324 2.54503 34.7447 6.35131C34.8199 6.60922 35.0286 6.80566 35.2901 6.86492C35.5516 6.9263 35.8247 6.83889 36.0038 6.63958C38.2335 4.16615 42.3956 5.73339 42.3956 9.09044C42.3956 11.8875 39.3829 13.6453 36.9616 12.3047C36.7492 12.1877 36.4928 12.1812 36.2754 12.2889C36.058 12.3964 35.907 12.6039 35.8716 12.8444C35.7626 13.5848 35.2619 14.1481 34.5338 14.3511C33.7985 14.5563 33.0711 14.3265 32.585 13.7364C32.4368 13.5573 32.2158 13.4526 31.981 13.4685C31.7485 13.4793 31.5347 13.5977 31.404 13.7899C30.6268 14.9261 29.263 15.5444 27.9217 15.3638C27.5071 15.3125 27.1437 15.5935 27.0896 15.998C27.0354 16.4032 27.3192 16.7751 27.7236 16.8301C29.3367 17.049 30.9669 16.4508 32.0894 15.2836C32.8991 15.8658 33.927 16.0558 34.9303 15.7763C35.9062 15.504 36.6704 14.8423 37.0691 13.9661C40.3845 15.0998 43.875 12.6236 43.875 9.09044Z" fill="#222222"/>
<path d="M24.1865 29.9194V33.0087C24.1865 33.4175 24.5173 33.7483 24.9261 33.7483C25.335 33.7483 25.6658 33.4175 25.6658 33.0087V29.9194C25.6658 29.5105 25.335 29.1797 24.9261 29.1797C24.5174 29.1797 24.1865 29.5105 24.1865 29.9194Z" fill="#FF9900"/>
<path d="M21.836 36.9948L19.1605 38.5391C18.8065 38.7435 18.6852 39.1957 18.8896 39.5496C19.096 39.9058 19.5496 40.0229 19.9001 39.8205L22.5757 38.2761C22.9296 38.0718 23.0509 37.6195 22.8465 37.2656C22.6421 36.9117 22.1884 36.7904 21.836 36.9948Z" fill="#FF9900"/>
<path d="M27.9425 37.0365C27.5893 36.832 27.1365 36.9527 26.9321 37.3074C26.7276 37.6613 26.849 38.1134 27.203 38.3179L29.8777 39.8621C30.2304 40.0659 30.6837 39.9455 30.8882 39.5913C31.0926 39.2373 30.9713 38.7852 30.6173 38.5807L27.9425 37.0365Z" fill="#FF9900"/>
</svg>
