<svg width="51" height="51" viewBox="0 0 51 51" fill="none" xmlns="http://www.w3.org/2000/svg">
<mask id="mask0_1_2160" style="mask-type:luminance" maskUnits="userSpaceOnUse" x="0" y="1" width="51" height="50">
<path d="M50.09 1.41199H0.909668V50.5923H50.09V1.41199Z" fill="white"/>
</mask>
<g mask="url(#mask0_1_2160)">
<path d="M22.0521 12.6395C21.1271 12.6395 20.3484 13.3641 20.2952 14.2995C20.2952 14.3 20.295 14.3006 20.2949 14.3012L19.9615 20.1538C19.942 20.4969 20.2042 20.7908 20.5471 20.8105C20.8947 20.8319 21.1841 20.5679 21.2038 20.2248L21.3397 17.8395H26.2406L26.7794 27.2866C26.7983 27.6176 27.0724 27.8733 27.4 27.8733C27.412 27.8733 27.4238 27.8729 27.4359 27.8723C27.7788 27.8526 28.041 27.5588 28.0215 27.2156C27.1947 12.6679 27.3793 15.9157 27.2874 14.2993C27.2356 13.3869 26.4785 12.6394 25.5306 12.6394L22.0521 12.6395ZM21.4111 16.5954L21.5373 14.3719C21.5542 14.0855 21.8049 13.8848 22.0508 13.884H25.5294C25.8038 13.884 26.0293 14.0964 26.0429 14.3722L26.1697 16.5954H21.4111Z" fill="#FF9900"/>
<path d="M40.7574 39.7935H43.1458C43.8787 39.7935 44.4749 39.1973 44.4749 38.4647V36.0763C44.4749 35.3434 43.8787 34.7473 43.1458 34.7473H40.7574C40.0248 34.7473 39.4287 35.3434 39.4287 36.0763V38.4647C39.4287 39.1973 40.0248 39.7935 40.7574 39.7935ZM40.6729 36.0762C40.6729 36.0295 40.7108 35.9914 40.7574 35.9914H43.1458C43.1925 35.9914 43.2307 36.0295 43.2307 36.0762V38.4646C43.2307 38.5113 43.1925 38.5491 43.1458 38.5491H40.7574C40.7108 38.5491 40.6729 38.5112 40.6729 38.4646V36.0762Z" fill="#222222"/>
<path d="M33.024 39.7935H35.4124C36.1454 39.7935 36.7415 39.1973 36.7415 38.4647V36.0763C36.7415 35.3434 36.1454 34.7473 35.4124 34.7473H33.024C32.2915 34.7473 31.6953 35.3434 31.6953 36.0763V38.4647C31.6953 39.1973 32.2915 39.7935 33.024 39.7935ZM32.9395 36.0762C32.9395 36.0295 32.9774 35.9914 33.024 35.9914H35.4124C35.4592 35.9914 35.4973 36.0295 35.4973 36.0762V38.4646C35.4973 38.5113 35.4592 38.5491 35.4124 38.5491H33.024C32.9774 38.5491 32.9395 38.5112 32.9395 38.4646V36.0762Z" fill="#222222"/>
<path d="M27.6782 34.7473H25.29C24.5571 34.7473 23.9609 35.3434 23.9609 36.0763V38.4647C23.9609 39.1973 24.5571 39.7935 25.29 39.7935H27.6782C28.4111 39.7935 29.0072 39.1973 29.0072 38.4647V36.0763C29.0072 35.3433 28.4111 34.7473 27.6782 34.7473ZM27.7631 38.4647C27.7631 38.5114 27.7249 38.5493 27.6782 38.5493H25.29C25.2433 38.5493 25.2052 38.5113 25.2052 38.4647V36.0763C25.2052 36.0296 25.2433 35.9915 25.29 35.9915H27.6782C27.7249 35.9915 27.7631 36.0296 27.7631 36.0763V38.4647Z" fill="#222222"/>
<path d="M23.2386 24.178C23.2386 23.0071 22.2861 22.0547 21.1153 22.0547H7.54513C6.37431 22.0547 5.42183 23.0072 5.42183 24.178V46.5433H4.27185C3.31467 46.5433 2.53613 47.3218 2.53613 48.2789C2.53613 49.236 3.31476 50.0146 4.27185 50.0146L47.1227 50.0143C48.0796 50.0143 48.8582 49.2358 48.8582 48.2788C48.8582 47.3218 48.0797 46.5432 47.1227 46.5432H46.4406V29.404C46.4406 29.089 46.2883 28.7908 46.0334 28.6059C45.7784 28.4212 45.4467 28.3703 45.1485 28.4677L38.7067 30.579V29.404C38.7067 29.089 38.5544 28.7908 38.2996 28.6062C38.0442 28.4213 37.7133 28.3695 37.4146 28.4677L30.9726 30.5789V29.404C30.9726 29.089 30.8205 28.7908 30.5657 28.6062C30.3103 28.4213 29.9794 28.3695 29.6806 28.4677L23.2386 30.5791V24.178ZM6.66594 24.178C6.66594 23.6932 7.06034 23.2988 7.54513 23.2988H21.1153C21.6002 23.2988 21.9945 23.6932 21.9945 24.178V46.5433H18.2951V42.8023C18.2951 41.7258 17.4194 40.8501 16.3428 40.8501H12.3177C11.2412 40.8501 10.3655 41.7258 10.3655 42.8023V46.5433H6.66594V24.178ZM17.0508 46.5433H11.6096V42.8023C11.6096 42.4119 11.9271 42.0942 12.3177 42.0942H16.3428C16.7333 42.0942 17.051 42.4118 17.051 42.8023L17.0508 46.5433ZM47.6141 48.2789C47.6141 48.5499 47.3937 48.7702 47.1228 48.7702L4.27195 48.7704C4.00098 48.7704 3.78034 48.5499 3.78034 48.2789C3.78034 48.0079 4.00098 47.7876 4.27195 47.7876H47.1228C47.3937 47.7876 47.6141 48.0079 47.6141 48.2789ZM45.1965 29.7614V46.5433H38.7067V31.8881L45.1965 29.7614ZM37.4624 29.7614V46.5433H30.9726V31.8881L37.4624 29.7614ZM23.2389 31.8881L29.7285 29.7614V46.5433H23.2389V31.8881Z" fill="#FF9900"/>
<path d="M9.96546 28.2423H18.696C19.7164 28.2423 20.5464 27.4122 20.5464 26.3919C20.5464 25.3716 19.7163 24.5415 18.696 24.5415H9.96546C8.94534 24.5415 8.11523 25.3717 8.11523 26.3919C8.11523 27.4122 8.94524 28.2423 9.96546 28.2423ZM9.96546 25.7856H18.696C19.0304 25.7856 19.3023 26.0576 19.3023 26.3919C19.3023 26.7263 19.0304 26.9982 18.696 26.9982H9.96546C9.63136 26.9982 9.3594 26.7263 9.3594 26.3919C9.3594 26.0576 9.63128 25.7856 9.96546 25.7856Z" fill="#FF9900"/>
<path d="M9.56018 34.0874H12.004C12.802 34.0874 13.4513 33.4381 13.4513 32.6398V30.9372C13.4513 30.1389 12.802 29.4896 12.004 29.4896H9.56018C8.76212 29.4896 8.11279 30.1389 8.11279 30.9372V32.6398C8.11288 33.4381 8.76212 34.0874 9.56018 34.0874ZM9.35698 30.9371C9.35698 30.8248 9.44813 30.7337 9.56018 30.7337H12.004C12.116 30.7337 12.2071 30.8249 12.2071 30.9371V32.6397C12.2071 32.752 12.116 32.8431 12.004 32.8431H9.56018C9.44813 32.8431 9.35698 32.7519 9.35698 32.6397V30.9371Z" fill="#FF9900"/>
<path d="M19.0986 29.4894H16.6549C15.8569 29.4894 15.2075 30.1387 15.2075 30.9369V32.6396C15.2075 33.4378 15.8569 34.0872 16.6549 34.0872H19.0986C19.8968 34.0872 20.5461 33.4378 20.5461 32.6396V30.9369C20.5461 30.1387 19.8968 29.4894 19.0986 29.4894ZM19.3019 32.6397C19.3019 32.752 19.2108 32.8431 19.0986 32.8431H16.6549C16.5429 32.8431 16.4518 32.7519 16.4518 32.6397V30.937C16.4518 30.8248 16.5429 30.7337 16.6549 30.7337H19.0986C19.2109 30.7337 19.3019 30.8249 19.3019 30.937V32.6397Z" fill="#FF9900"/>
<path d="M12.0041 39.9464C12.8021 39.9464 13.4514 39.2971 13.4514 38.4989V36.7962C13.4514 35.998 12.8021 35.3486 12.0041 35.3486H9.56018C8.76212 35.3486 8.11279 35.998 8.11279 36.7962V38.4989C8.11279 39.2971 8.76212 39.9464 9.56018 39.9464H12.0041ZM9.35698 38.4989V36.7962C9.35698 36.6839 9.44813 36.5928 9.56018 36.5928H12.004C12.116 36.5928 12.2071 36.684 12.2071 36.7962V38.4989C12.2071 38.6112 12.116 38.7022 12.004 38.7022H9.56018C9.44813 38.7022 9.35698 38.6112 9.35698 38.4989Z" fill="#FF9900"/>
<path d="M19.0986 35.3484H16.6549C15.8569 35.3484 15.2075 35.9977 15.2075 36.7959V38.4986C15.2075 39.2968 15.8569 39.9462 16.6549 39.9462H19.0986C19.8968 39.9462 20.5461 39.2968 20.5461 38.4986V36.7959C20.5461 35.9977 19.8968 35.3484 19.0986 35.3484ZM19.3019 38.4987C19.3019 38.611 19.2108 38.702 19.0986 38.702H16.6549C16.5429 38.702 16.4518 38.6108 16.4518 38.4987V36.796C16.4518 36.6837 16.5429 36.5927 16.6549 36.5927H19.0986C19.2109 36.5927 19.3019 36.6838 19.3019 36.796V38.4987Z" fill="#FF9900"/>
<path d="M13.2251 9.10647C13.2251 9.29745 13.2553 9.48139 13.3106 9.65417H11.8412C10.8504 9.65417 10.0493 10.4544 10.0493 11.4461C10.0493 12.4341 10.8532 13.238 11.8412 13.238H18.2754C19.261 13.238 20.0628 12.4341 20.0628 11.4461C20.0628 11.2552 20.033 11.0712 19.9776 10.8984H21.4468C22.4348 10.8984 23.2387 10.0945 23.2387 9.10647C23.2387 8.11846 22.4348 7.31458 21.4468 7.31458H15.0169C14.0264 7.31458 13.2251 8.11491 13.2251 9.10647ZM21.9946 9.10647C21.9946 9.4086 21.7489 9.65417 21.4469 9.65417H18.2755C17.9319 9.65417 17.6534 9.9327 17.6534 10.2762C17.6534 10.6198 17.9319 10.8983 18.2755 10.8983C18.5751 10.8983 18.8188 11.144 18.8188 11.446C18.8188 11.7481 18.5751 11.9937 18.2755 11.9937H11.8413C11.5392 11.9937 11.2936 11.748 11.2936 11.446C11.2936 11.1462 11.5333 10.8983 11.8413 10.8983H15.0171C15.3607 10.8983 15.6392 10.6198 15.6392 10.2762C15.6392 9.9327 15.3607 9.65417 15.0171 9.65417C14.715 9.65417 14.4694 9.40852 14.4694 9.10647C14.4694 8.80218 14.7139 8.55878 15.0171 8.55878H21.4469C21.7489 8.55878 21.9946 8.80439 21.9946 9.10647Z" fill="#FF9900"/>
<path d="M3.93205 7.9131H10.3662C11.3518 7.9131 12.1537 7.1092 12.1537 6.12118C12.1537 5.93022 12.1239 5.74628 12.0684 5.57348H13.5375C14.5259 5.57348 15.3297 4.76959 15.3297 3.78157C15.3297 2.79354 14.526 1.98975 13.5377 1.98975H7.10793C6.11712 1.98975 5.31602 2.79008 5.31602 3.78166C5.31602 3.97261 5.34618 4.15657 5.40151 4.32937H3.93205C2.9447 4.32937 2.14014 5.12615 2.14014 6.12128C2.14024 7.1093 2.94403 7.9131 3.93205 7.9131ZM3.93205 5.57348H7.10783C7.45142 5.57348 7.72989 5.29501 7.72989 4.95142C7.72989 4.60783 7.45142 4.32937 7.10783 4.32937C6.80574 4.32937 6.56013 4.08366 6.56013 3.78166C6.56013 3.47735 6.80469 3.23395 7.10783 3.23395H13.5377C13.8398 3.23395 14.0857 3.47966 14.0857 3.78166C14.0857 4.08366 13.8398 4.32937 13.5377 4.32937H10.3663C10.0227 4.32937 9.74427 4.60783 9.74427 4.95142C9.74427 5.29501 10.0227 5.57348 10.3663 5.57348C10.6659 5.57348 10.9097 5.81919 10.9097 6.12118C10.9097 6.42318 10.666 6.66889 10.3663 6.66889H3.93205C3.62996 6.66889 3.38434 6.42318 3.38434 6.12118C3.38434 5.82534 3.61968 5.57348 3.93205 5.57348Z" fill="#FF9900"/>
</g>
</svg>
