<svg width="50" height="51" viewBox="0 0 50 51" fill="none" xmlns="http://www.w3.org/2000/svg">
<path d="M9.38235 27.8954C9.77931 27.8954 10.101 27.5736 10.101 27.1767V17.8908C10.101 16.8984 10.5952 15.981 11.4252 15.4353C12.0282 15.0358 12.5272 14.4923 12.8682 13.8624C13.2114 13.2272 13.3929 12.5099 13.3929 11.7886V10.7394H15.7649V11.7817C15.7649 13.2626 16.4987 14.6292 17.7294 15.4381C18.5183 15.9529 19.0563 16.8558 19.0563 17.8908V27.1624C19.0563 27.5593 19.3781 27.8811 19.775 27.8811C20.1719 27.8811 20.4937 27.5593 20.4937 27.1624V17.8908C20.4937 16.3782 19.7172 15.0182 18.5169 14.2358C17.6936 13.6947 17.2023 12.7773 17.2023 11.7818C17.2022 11.709 17.1963 7.96103 17.1967 8.1979C17.1967 7.19249 16.3787 6.37439 15.3732 6.37439H13.7778C12.772 6.37439 11.954 7.19239 11.954 8.1979C11.954 8.27061 11.9555 12.0256 11.9555 11.7887C11.9555 12.2724 11.8337 12.7531 11.6037 13.1789C11.375 13.6014 11.0384 13.9674 10.6334 14.2358C9.39989 15.0466 8.66357 16.4127 8.66357 17.8908V27.1767C8.66357 27.5736 8.98546 27.8954 9.38235 27.8954ZM13.3915 8.19781C13.3915 7.98475 13.5649 7.81176 13.778 7.81176H15.3733C15.5864 7.81176 15.7594 7.98475 15.7594 8.19781V9.30011H13.3916L13.3915 8.19781Z" fill="#FF9900"/>
<path d="M24.1661 27.8812C24.563 27.8812 24.8848 27.5594 24.8848 27.1625V17.8909C24.8848 16.8985 25.3789 15.9811 26.2086 15.4354C26.8114 15.0363 27.3105 14.4928 27.6523 13.8625C27.9955 13.2269 28.1766 12.5096 28.1766 11.7887V10.7395H30.5483V11.7817C30.5483 13.2651 31.2853 14.6321 32.5164 15.4358C32.9242 15.7057 33.2596 16.0727 33.4906 16.5037C33.7194 16.922 33.8401 17.4017 33.8401 17.8909V27.1625C33.8401 27.5594 34.1616 27.8812 34.5588 27.8812C34.9561 27.8812 35.2775 27.5594 35.2775 27.1625V17.8909C35.2775 17.161 35.0957 16.443 34.7546 15.8197C34.4148 15.1852 33.9151 14.6377 33.3059 14.2345C32.4791 13.6948 31.9856 12.7777 31.9856 11.7817C31.9855 11.709 31.9811 7.96103 31.9814 8.1979C31.9814 7.19249 31.1637 6.37439 30.1578 6.37439H28.5627C27.5569 6.37439 26.7392 7.19239 26.7392 8.1979C26.7392 8.33459 26.7392 11.9166 26.7392 11.7887C26.7392 12.2724 26.6178 12.7531 26.3882 13.1785C26.1587 13.6014 25.8225 13.9674 25.4168 14.2358C24.1835 15.0466 23.4473 16.4131 23.4473 17.8908V27.1624C23.4473 27.5593 23.7692 27.8812 24.1661 27.8812ZM28.1766 8.1979C28.1766 7.98485 28.35 7.81186 28.5627 7.81186H30.1581C30.3707 7.81186 30.5441 7.98485 30.5441 8.1979V9.30019H28.1766V8.1979Z" fill="#FF9900"/>
<path d="M9.85345 44.6407H40.5303C44.7549 44.6407 48.1914 41.2039 48.1914 36.9795C48.1914 32.7553 44.755 29.3185 40.5303 29.3185H9.85345C5.62915 29.3185 2.19238 32.7553 2.19238 36.9795C2.19238 41.2039 5.62924 44.6407 9.85345 44.6407ZM9.85345 30.7559H40.5303C43.9617 30.7559 46.7539 33.5477 46.7539 36.9795C46.7539 40.4114 43.9619 43.2032 40.5303 43.2032H9.85345C6.4216 43.2032 3.62986 40.4114 3.62986 36.9795C3.62986 33.5477 6.4216 30.7559 9.85345 30.7559Z" fill="#FF9900"/>
<path d="M11.3554 38.7546C11.7523 38.7546 12.0741 38.4328 12.0741 38.0359V35.9233C12.0741 35.5263 11.7523 35.2046 11.3554 35.2046C10.9584 35.2046 10.6367 35.5263 10.6367 35.9233V38.0359C10.6366 38.4327 10.9584 38.7546 11.3554 38.7546Z" fill="#222222"/>
<path d="M18.2734 38.7546C18.6703 38.7546 18.9921 38.4328 18.9921 38.0359V35.9233C18.9921 35.5263 18.6703 35.2046 18.2734 35.2046C17.8765 35.2046 17.5547 35.5263 17.5547 35.9233V38.0359C17.5546 38.4327 17.8764 38.7546 18.2734 38.7546Z" fill="#222222"/>
<path d="M25.1928 38.7546C25.5901 38.7546 25.9115 38.4328 25.9115 38.0359V35.9233C25.9115 35.5263 25.59 35.2046 25.1928 35.2046C24.7959 35.2046 24.4741 35.5263 24.4741 35.9233V38.0359C24.474 38.4327 24.7959 38.7546 25.1928 38.7546Z" fill="#222222"/>
<path d="M32.1113 38.7546C32.5086 38.7546 32.83 38.4328 32.83 38.0359V35.9233C32.83 35.5263 32.5085 35.2046 32.1113 35.2046C31.714 35.2046 31.3926 35.5263 31.3926 35.9233V38.0359C31.3926 38.4327 31.7141 38.7546 32.1113 38.7546Z" fill="#222222"/>
<path d="M39.0297 38.7546C39.4269 38.7546 39.7484 38.4328 39.7484 38.0359V35.9233C39.7484 35.5263 39.4269 35.2046 39.0297 35.2046C38.6324 35.2046 38.311 35.5263 38.311 35.9233V38.0359C38.311 38.4327 38.6324 38.7546 39.0297 38.7546Z" fill="#222222"/>
</svg>
