<svg width="51" height="51" viewBox="0 0 51 51" fill="none" xmlns="http://www.w3.org/2000/svg">
<path d="M10.3741 28.8883H6.45293C5.53642 28.8883 4.79102 29.6337 4.79102 30.55V32.6604C4.79102 33.5766 5.53642 34.3223 6.45293 34.3223H10.374C11.2905 34.3223 12.036 33.5766 12.036 32.6604V30.55C12.036 29.6337 11.2906 28.8883 10.3741 28.8883ZM10.9179 32.6604C10.9179 32.9603 10.674 33.2041 10.3741 33.2041H6.45293C6.15302 33.2041 5.90918 32.9603 5.90918 32.6604V30.55C5.90918 30.2503 6.15302 30.0065 6.45293 30.0065H10.374C10.674 30.0065 10.9178 30.2503 10.9178 30.55L10.9179 32.6604Z" fill="#FF9900"/>
<path d="M18.9033 28.8883H14.9822C14.0657 28.8883 13.3203 29.6337 13.3203 30.55V32.6604C13.3203 33.5766 14.0657 34.3223 14.9822 34.3223H18.9033C19.8198 34.3223 20.5652 33.5766 20.5652 32.6604V30.55C20.5652 29.6337 19.8198 28.8883 18.9033 28.8883ZM19.4471 32.6604C19.4471 32.9603 19.2032 33.2041 18.9033 33.2041H14.9822C14.6823 33.2041 14.4385 32.9603 14.4385 32.6604V30.55C14.4385 30.2503 14.6823 30.0065 14.9822 30.0065H18.9033C19.2032 30.0065 19.4471 30.2503 19.4471 30.55V32.6604Z" fill="#FF9900"/>
<path d="M27.4336 28.8878H23.5125C22.596 28.8878 21.8506 29.6332 21.8506 30.5496V32.6599C21.8506 33.5762 22.596 34.3218 23.5125 34.3218H27.4336C28.3501 34.3218 29.0955 33.5762 29.0955 32.6599V30.5496C29.0955 29.6332 28.35 28.8878 27.4336 28.8878ZM27.9773 32.6599C27.9773 32.9598 27.7335 33.2037 27.4336 33.2037H23.5125C23.2126 33.2037 22.9688 32.9598 22.9688 32.6599V30.5496C22.9688 30.2498 23.2126 30.006 23.5125 30.006H27.4336C27.7335 30.006 27.9773 30.2498 27.9773 30.5496V32.6599Z" fill="#FF9900"/>
<path d="M10.3741 37.6493H6.45293C5.53642 37.6493 4.79102 38.3947 4.79102 39.311V41.4214C4.79102 42.3376 5.53642 43.0833 6.45293 43.0833H10.374C11.2905 43.0833 12.036 42.3376 12.036 41.4214V39.311C12.036 38.3947 11.2906 37.6493 10.3741 37.6493ZM10.9179 41.4214C10.9179 41.7212 10.674 41.9651 10.3741 41.9651H6.45293C6.15302 41.9651 5.90918 41.7212 5.90918 41.4214V39.311C5.90918 39.0113 6.15302 38.7675 6.45293 38.7675H10.374C10.674 38.7675 10.9178 39.0113 10.9178 39.311L10.9179 41.4214Z" fill="#FF9900"/>
<path d="M18.9033 37.6493H14.9822C14.0657 37.6493 13.3203 38.3947 13.3203 39.311V41.4214C13.3203 42.3376 14.0657 43.0833 14.9822 43.0833H18.9033C19.8198 43.0833 20.5652 42.3376 20.5652 41.4214V39.311C20.5652 38.3947 19.8198 37.6493 18.9033 37.6493ZM19.4471 41.4214C19.4471 41.7212 19.2032 41.9651 18.9033 41.9651H14.9822C14.6823 41.9651 14.4385 41.7212 14.4385 41.4214V39.311C14.4385 39.0113 14.6823 38.7675 14.9822 38.7675H18.9033C19.2032 38.7675 19.4471 39.0113 19.4471 39.311V41.4214Z" fill="#FF9900"/>
<path d="M27.4336 37.6493H23.5125C22.596 37.6493 21.8506 38.3947 21.8506 39.311V41.4214C21.8506 42.3376 22.596 43.0833 23.5125 43.0833H27.4336C28.3501 43.0833 29.0955 42.3376 29.0955 41.4214V39.311C29.0955 38.3947 28.35 37.6493 27.4336 37.6493ZM27.9773 41.4214C27.9773 41.7212 27.7335 41.9651 27.4336 41.9651H23.5125C23.2126 41.9651 22.9688 41.7212 22.9688 41.4214V39.311C22.9688 39.0113 23.2126 38.7675 23.5125 38.7675H27.4336C27.7335 38.7675 27.9773 39.0113 27.9773 39.311V41.4214Z" fill="#FF9900"/>
<path d="M42.3252 18.6564H35.157C33.9198 18.6564 32.9131 19.6629 32.9131 20.9003C32.9131 22.1376 33.9198 23.1442 35.157 23.1442H42.3252C43.5623 23.1442 44.5691 22.1377 44.5691 20.9003C44.5691 19.663 43.5623 18.6564 42.3252 18.6564ZM42.3252 22.026H35.157C34.5364 22.026 34.0312 21.5211 34.0312 20.9003C34.0312 20.2795 34.5364 19.7745 35.157 19.7745H42.3252C42.9458 19.7745 43.4509 20.2795 43.4509 20.9003C43.4509 21.5211 42.9458 22.026 42.3252 22.026Z" fill="#FF9900"/>
<path d="M42.3252 24.9052H35.157C33.9198 24.9052 32.9131 25.9117 32.9131 27.1491C32.9131 28.3864 33.9198 29.3931 35.157 29.3931H42.3252C43.5623 29.3931 44.5691 28.3865 44.5691 27.1491C44.5691 25.9118 43.5623 24.9052 42.3252 24.9052ZM42.3252 28.2749H35.157C34.5364 28.2749 34.0312 27.7699 34.0312 27.1491C34.0312 26.5283 34.5364 26.0233 35.157 26.0233H42.3252C42.9458 26.0233 43.4509 26.5283 43.4509 27.1491C43.4509 27.7699 42.9458 28.2749 42.3252 28.2749Z" fill="#FF9900"/>
<path d="M42.3252 31.1547H35.157C33.9198 31.1547 32.9131 32.1612 32.9131 33.3987C32.9131 34.6359 33.9198 35.6426 35.157 35.6426H42.3252C43.5623 35.6426 44.5691 34.636 44.5691 33.3987C44.5691 32.1613 43.5623 31.1547 42.3252 31.1547ZM42.3252 34.5244H35.157C33.6675 34.5244 33.6678 32.2728 35.157 32.2728H42.3252C42.9458 32.2728 43.4509 32.7778 43.4509 33.3987C43.4509 34.0194 42.9458 34.5244 42.3252 34.5244Z" fill="#FF9900"/>
<path d="M7.32547 23.7875C7.59295 23.7875 7.82957 23.5948 7.87576 23.322L9.29304 14.9712H15.6059L17.0233 23.322C17.075 23.6267 17.3665 23.8301 17.668 23.7797C17.9722 23.728 18.1771 23.4394 18.1255 23.1349C15.8402 9.9192 16.0459 10.2736 15.7306 9.72845C15.4039 9.16154 14.794 8.79187 14.1053 8.79187H10.7926C9.92246 8.79187 9.18487 9.38487 8.97887 10.217C8.91421 10.4765 6.77996 23.0973 6.77362 23.135C6.71599 23.475 6.97722 23.7875 7.32547 23.7875ZM9.48287 13.8532C10.0891 10.2819 10.0422 10.5244 10.0759 10.4246C10.179 10.1215 10.464 9.91145 10.7946 9.91145H14.1043C14.3831 9.91145 14.63 10.0604 14.7625 10.2887C14.8841 10.4995 14.81 10.385 15.4157 13.8532H9.48287Z" fill="#FF9900"/>
<path d="M11.9057 8.2873C12.1896 8.16552 12.3207 7.83671 12.1987 7.55302C11.8522 6.74687 12.7587 5.77548 13.6404 5.60742C14.6686 5.41103 15.7703 5.81903 16.8379 6.21288C18.0103 6.58974 19.4938 7.23339 21.0578 6.65624C21.9019 6.34433 22.5902 5.55976 22.8108 4.65742C22.9859 3.94325 22.8282 3.2495 22.3787 2.754C22.1706 2.52518 21.8172 2.50849 21.5889 2.71562C21.3603 2.92304 21.3428 3.27656 21.5503 3.50527C21.8052 3.78603 21.7858 4.14218 21.7251 4.39159C21.594 4.92646 21.1605 5.42636 20.6706 5.60732C19.527 6.02929 18.264 5.51884 17.2252 5.16396C16.0709 4.73808 14.7632 4.25438 13.4307 4.50898C11.8583 4.80908 10.5242 6.48768 11.1716 7.99462C11.2937 8.27861 11.623 8.40927 11.9057 8.2873Z" fill="#222222"/>
<path d="M25.6741 4.75457C29.3859 3.27859 33.6052 5.09656 35.0817 8.80757C35.1965 9.09657 35.524 9.23398 35.808 9.12032C36.0948 9.00623 36.2349 8.68115 36.1207 8.39412C34.4157 4.10994 29.5443 2.01072 25.2607 3.7157C24.9739 3.82976 24.8337 4.15486 24.948 4.44187C25.0618 4.72907 25.3877 4.86941 25.6741 4.75457Z" fill="#222222"/>
<path d="M26.3188 6.37366C26.0319 6.48773 25.8919 6.81282 26.0061 7.09964C26.12 7.38665 26.4447 7.52747 26.7323 7.41244C28.9766 6.51995 31.5313 7.61917 32.4245 9.86474C32.5392 10.1538 32.8665 10.2914 33.1507 10.1776C33.4375 10.0635 33.5777 9.7384 33.4634 9.45157C32.3426 6.63333 29.1389 5.25208 26.3188 6.37366Z" fill="#222222"/>
<path d="M38.8899 10.9767C39.136 11.1642 39.4871 11.1148 39.6732 10.8699L41.5011 8.46474C41.6041 8.32919 41.6398 8.1539 41.5979 7.98886C41.5561 7.82383 41.4411 7.68671 41.2856 7.61689L40.2323 7.14169L41.3701 5.31103C41.5331 5.04883 41.4527 4.70409 41.1907 4.54101C40.929 4.37812 40.5836 4.4582 40.4209 4.7206L38.9456 7.09355C38.8606 7.23037 38.8386 7.39726 38.8856 7.55165C38.9326 7.70576 39.0436 7.83213 39.1906 7.89833L40.1857 8.34726L38.783 10.1932C38.5961 10.4392 38.6438 10.7898 38.8899 10.9767Z" fill="#222222"/>
<path d="M21.5935 12.8228C21.5234 12.5223 21.2227 12.3361 20.9219 12.4053C20.6213 12.4755 20.4343 12.7762 20.5045 13.0769L21.1393 15.7978C21.1759 15.9546 21.2784 16.0882 21.4206 16.1641C21.5629 16.2401 21.7314 16.2505 21.8814 16.1936L22.9031 15.8075L23.2161 18.1047C23.2543 18.385 23.4943 18.5882 23.7694 18.5882C23.7944 18.5882 23.8199 18.5865 23.8454 18.5831C24.1515 18.5415 24.3659 18.2596 24.324 17.9536L23.916 14.9605C23.8931 14.7917 23.7944 14.6427 23.6481 14.5556C23.5019 14.4688 23.3231 14.4531 23.1644 14.5132L22.0831 14.9221L21.5935 12.8228Z" fill="#222222"/>
<path d="M48.3189 46.6909H46.8095V11.9091C46.8095 10.6833 45.5405 9.85939 44.416 10.3681L31.6326 16.1986C31.0325 16.4766 30.6448 17.081 30.6448 17.7385V24.9054H4.70996C3.2832 24.9054 2.12207 26.0663 2.12207 27.4931V47.2486C2.12207 47.5573 2.37246 47.8076 2.68115 47.8076C6.3794 47.8077 45.8738 47.809 48.3189 47.8091C48.6275 47.8091 48.878 47.5589 48.878 47.25C48.878 46.9411 48.6275 46.6909 48.3189 46.6909ZM3.24024 27.4931C3.24024 26.6828 3.89942 26.0236 4.70996 26.0236H30.6448C30.6457 50.8486 30.6455 46.0661 30.6455 46.6896H3.24024V27.4931ZM35.7325 46.6895V41.0469C35.7325 39.3957 37.076 38.0525 38.7274 38.0525C40.3783 38.0525 41.7218 39.3957 41.7218 41.0469V46.6895H35.7325ZM42.84 46.6909V41.0469C42.84 38.7791 40.995 36.9343 38.7274 36.9343C36.4594 36.9343 34.6144 38.7791 34.6144 41.0469V46.6909C34.5424 46.6909 31.5969 46.6909 31.7637 46.6909C31.7635 43.1685 31.7632 26.4914 31.763 17.7385C31.763 17.5151 31.8962 17.3088 32.0993 17.2147L44.8782 11.3862C45.2635 11.2125 45.6913 11.4966 45.6913 11.9093V46.691L42.84 46.6909Z" fill="#FF9900"/>
</svg>
