<svg width="21" height="20" viewBox="0 0 21 20" fill="none" xmlns="http://www.w3.org/2000/svg">
<mask id="mask0_1_656" style="mask-type:luminance" maskUnits="userSpaceOnUse" x="0" y="0" width="20" height="20">
<path d="M19.5769 0.631836H0.529236V19.6795H19.5769V0.631836Z" fill="white"/>
</mask>
<g mask="url(#mask0_1_656)">
<path d="M19.5501 11.2337C19.5501 11.2336 19.5501 11.2338 19.5501 11.2337L15.9538 2.20355C15.8774 2.01169 15.66 1.91803 15.4681 1.99435C15.468 1.9944 15.4682 1.99426 15.4681 1.99435L0.878094 7.80397C0.818595 7.82968 0.766996 7.87071 0.728529 7.92288C0.607196 7.98593 0.530544 8.11072 0.529236 8.24743V17.969C0.529236 18.1756 0.696654 18.343 0.903145 18.343H16.6073C16.8139 18.343 16.9813 18.1756 16.9813 17.969V12.6595L19.3414 11.7195C19.5332 11.643 19.6266 11.4255 19.5501 11.2337ZM16.2334 17.5951H1.27706V8.62134H16.2334V17.5951ZM6.76792 7.87539L13.0286 5.38067C13.5874 5.96798 14.3617 6.30179 15.1723 6.30497L15.7967 7.87539H6.76792ZM16.9813 11.8564V8.24743C16.9813 8.04094 16.8139 7.87352 16.6073 7.87352H16.6014L15.809 5.88357C15.8003 5.86698 15.7901 5.85118 15.7784 5.83647C15.7383 5.65638 15.5715 5.5335 15.3877 5.54855C14.6334 5.6173 13.8955 5.29957 13.4272 4.70427C13.3107 4.56045 13.1059 4.52469 12.9475 4.6205C12.9298 4.62261 12.9122 4.62588 12.8948 4.63023L5.25134 7.67386C5.15885 7.71012 5.08486 7.78206 5.04607 7.87352H2.72484L15.3974 2.82761L18.7173 11.1639L16.9813 11.8564Z" fill="#FF9900"/>
<path d="M2.29175 15.0709C3.01769 15.2855 3.58576 15.8528 3.80123 16.5785C3.84848 16.7369 3.99416 16.8454 4.15943 16.8455C4.17883 16.8442 4.19809 16.8414 4.21702 16.8369C4.23379 16.8417 4.25094 16.8451 4.26824 16.8474H13.2421C13.2575 16.8453 13.2728 16.8422 13.2877 16.8379C13.4745 16.8834 13.6628 16.7689 13.7083 16.582L13.7088 16.58C13.9236 15.8536 14.4918 15.2854 15.2182 15.0705C15.3944 15.0167 15.5038 14.8411 15.4747 14.6592C15.4797 14.6411 15.4833 14.6226 15.4855 14.6039V11.6126C15.4833 11.5939 15.4796 11.5754 15.4743 11.5573C15.5036 11.3753 15.3941 11.1997 15.2178 11.146C14.4914 10.9311 13.9234 10.3627 13.7091 9.63614C13.6549 9.45873 13.4777 9.34899 13.2948 9.37961C13.2775 9.37479 13.2599 9.37128 13.2421 9.36914H4.26824C4.24941 9.37138 4.23075 9.37512 4.21252 9.38035C4.03067 9.35138 3.85521 9.46079 3.80123 9.6369C3.58618 10.3631 3.01808 10.9311 2.29175 11.146C2.1156 11.1998 2.00613 11.3754 2.03525 11.5573C2.03039 11.5755 2.02689 11.5939 2.02478 11.6126V14.6039C2.02693 14.6215 2.03044 14.6388 2.03525 14.6559C2.00459 14.8389 2.11428 15.0164 2.29175 15.0709ZM2.7726 11.7644C3.52341 11.4628 4.11849 10.8678 4.42005 10.117H13.0899C13.3916 10.8678 13.9868 11.4628 14.7377 11.7644V14.452C13.9871 14.7539 13.3922 15.3489 13.0903 16.0995H4.42005C4.11816 15.3489 3.52318 14.7539 2.7726 14.452V11.7644Z" fill="#FF9900"/>
<path d="M8.75481 15.3521C9.99386 15.3521 10.9982 14.3477 10.9982 13.1087C10.9982 11.8696 9.99386 10.8652 8.75481 10.8652C7.51576 10.8652 6.51135 11.8696 6.51135 13.1087C6.51256 14.3471 7.51628 15.3509 8.75481 15.3521ZM8.75481 11.613C9.58082 11.613 10.2504 12.2827 10.2504 13.1087C10.2504 13.9347 9.58082 14.6043 8.75481 14.6043C7.9288 14.6043 7.25917 13.9347 7.25917 13.1087C7.25917 12.2827 7.9288 11.613 8.75481 11.613Z" fill="#FF9900"/>
<path d="M4.64296 13.6696C4.95269 13.6696 5.20382 13.4184 5.20382 13.1087C5.20382 12.799 4.95269 12.5479 4.64296 12.5479C4.33322 12.5479 4.08209 12.799 4.08209 13.1087C4.08209 13.4185 4.33322 13.6696 4.64296 13.6696ZM4.64296 12.9218C4.7462 12.9218 4.82991 13.0055 4.82991 13.1087C4.82991 13.2119 4.7462 13.2957 4.64296 13.2957C4.53971 13.2957 4.456 13.2119 4.456 13.1087C4.456 13.0055 4.53971 12.9218 4.64296 12.9218Z" fill="#FF9900"/>
<path d="M12.8684 13.6696C13.1781 13.6696 13.4292 13.4184 13.4292 13.1087C13.4292 12.799 13.1781 12.5479 12.8684 12.5479C12.5586 12.5479 12.3075 12.799 12.3075 13.1087C12.3075 13.4185 12.5586 13.6696 12.8684 13.6696ZM12.8684 12.9218C12.9716 12.9218 13.0553 13.0055 13.0553 13.1087C13.0553 13.2119 12.9716 13.2957 12.8684 13.2957C12.7651 13.2957 12.6814 13.2119 12.6814 13.1087C12.6814 13.0055 12.7651 12.9218 12.8684 12.9218Z" fill="#FF9900"/>
</g>
</svg>
