<svg width="16" height="17" viewBox="0 0 16 17" fill="none" xmlns="http://www.w3.org/2000/svg">
<g clip-path="url(#clip0_1_1763)">
<path d="M15.7969 4.91016C15.6511 4.75391 15.4714 4.67318 15.2579 4.66797C15.0443 4.66276 14.8646 4.73307 14.7188 4.87891L8.00006 11.2383L1.28132 4.87891C1.13548 4.73307 0.955794 4.66276 0.742253 4.66797C0.528711 4.67318 0.349023 4.75391 0.20319 4.91016C0.0573568 5.06641 -0.0103516 5.2487 6.51041e-05 5.45703C0.0104818 5.66536 0.0886068 5.84245 0.23444 5.98828L7.46882 12.8477C7.54173 12.9102 7.62507 12.9596 7.71882 12.9961C7.81257 13.0326 7.90631 13.0508 8.00006 13.0508C8.09381 13.0508 8.18496 13.0326 8.2735 12.9961C8.36204 12.9596 8.44798 12.9102 8.53131 12.8477L15.7657 5.98828C15.9115 5.84245 15.9896 5.66536 16.0001 5.45703C16.0105 5.2487 15.9428 5.06641 15.7969 4.91016Z" fill="#222222"/>
</g>
<defs>
<clipPath id="clip0_1_1763">
<rect width="16" height="16" fill="white" transform="matrix(1 0 0 -1 0 16.6602)"/>
</clipPath>
</defs>
</svg>
