<svg width="16" height="17" viewBox="0 0 16 17" fill="none" xmlns="http://www.w3.org/2000/svg">
<g clip-path="url(#clip0_1_2226)">
<path d="M15.7969 4.38989C15.6511 4.23364 15.4714 4.15291 15.2579 4.14771C15.0443 4.1425 14.8646 4.21281 14.7188 4.35864L8.00006 10.718L1.28132 4.35864C1.13548 4.21281 0.955794 4.1425 0.742253 4.14771C0.528711 4.15291 0.349023 4.23364 0.20319 4.38989C0.0573568 4.54614 -0.0103516 4.72843 6.51041e-05 4.93677C0.0104818 5.1451 0.0886068 5.32218 0.23444 5.46802L7.46882 12.3274C7.54173 12.3899 7.62507 12.4394 7.71882 12.4758C7.81257 12.5123 7.90631 12.5305 8.00006 12.5305C8.09381 12.5305 8.18496 12.5123 8.2735 12.4758C8.36204 12.4394 8.44798 12.3899 8.53131 12.3274L15.7657 5.46802C15.9115 5.32218 15.9896 5.1451 16.0001 4.93677C16.0105 4.72843 15.9428 4.54614 15.7969 4.38989Z" fill="white"/>
</g>
<defs>
<clipPath id="clip0_1_2226">
<rect width="16" height="16" fill="white" transform="matrix(1 0 0 -1 0 16.1399)"/>
</clipPath>
</defs>
</svg>
