<svg width="25" height="25" viewBox="0 0 25 25" fill="none" xmlns="http://www.w3.org/2000/svg">
<g clip-path="url(#clip0_1_2478)">
<path d="M7.5225 19.0866C7.2345 19.0866 7.0425 18.9852 6.8505 18.7824C6.4665 18.3769 6.4665 17.7685 6.8505 17.363L16.4505 7.22444C16.8345 6.8189 17.4105 6.8189 17.7945 7.22444C18.1785 7.62999 18.1785 8.2383 17.7945 8.64384L8.1945 18.7824C8.0025 18.9852 7.8105 19.0866 7.5225 19.0866Z" fill="#FF9900"/>
<path d="M17.1224 18.0728C16.5464 18.0728 16.1624 17.6672 16.1624 17.0589V8.948H8.48246C7.90646 8.948 7.52246 8.54246 7.52246 7.93414C7.52246 7.32583 7.90646 6.92029 8.48246 6.92029H17.1224C17.6984 6.92029 18.0824 7.32583 18.0824 7.93414V17.0589C18.0824 17.6672 17.6984 18.0728 17.1224 18.0728Z" fill="#FF9900"/>
</g>
<defs>
<clipPath id="clip0_1_2478">
<rect width="24" height="24" fill="white" transform="translate(0.779785 0.810059)"/>
</clipPath>
</defs>
</svg>
