<svg width="30" height="30" viewBox="0 0 30 30" fill="none" xmlns="http://www.w3.org/2000/svg">
<mask id="mask0_1_962" style="mask-type:luminance" maskUnits="userSpaceOnUse" x="0" y="0" width="30" height="30">
<path d="M29.8781 0.0354385H0.845825V29.0677H29.8781V0.0354385Z" fill="white"/>
</mask>
<g mask="url(#mask0_1_962)">
<path d="M19.9912 28.3419C19.8706 28.3419 19.7493 28.3313 19.6287 28.3097C15.4774 27.5624 11.339 25.2995 7.97657 21.937C4.61409 18.5745 2.35115 14.4362 1.60387 10.2849C1.46307 9.50137 1.7914 8.68654 2.44035 8.20888C3.27143 7.59726 4.16691 7.02868 5.10144 6.51994C5.72105 6.18278 6.45151 6.16397 7.05686 6.46893C9.12628 7.51204 10.498 9.24943 11.1339 11.6326C11.3063 12.2776 11.1526 12.977 10.7231 13.5031L9.35201 15.181C9.13227 15.45 9.10547 15.821 9.2856 16.1044C10.4521 17.9398 11.9738 19.4615 13.8092 20.6277C14.0922 20.8081 14.4633 20.781 14.7326 20.5615L16.4102 19.1907C16.9365 18.7609 17.6351 18.6075 18.2812 18.7797C20.6642 19.4158 22.4016 20.7876 23.4446 22.857C23.7499 23.4617 23.731 24.1925 23.3939 24.8121C22.8849 25.7467 22.3163 26.6421 21.7044 27.4732C21.3006 28.0221 20.655 28.3419 19.9912 28.3419ZM6.13915 7.56591C6.00206 7.56591 5.86069 7.60182 5.72959 7.67336C4.84694 8.15387 4.00246 8.68997 3.21899 9.26653C2.97018 9.44979 2.84364 9.75812 2.89664 10.0523C3.59662 13.9426 5.73045 17.8334 8.90511 21.0084C12.0801 24.1831 15.9709 26.317 19.8612 27.0169C20.1559 27.0697 20.4638 26.9431 20.6468 26.6946C21.2236 25.9111 21.7597 25.0666 22.2405 24.184C22.3713 23.9434 22.3833 23.6683 22.2721 23.4484C21.3923 21.7033 19.9761 20.5912 17.9423 20.0485C17.704 19.9853 17.4413 20.0443 17.241 20.2079L15.5637 21.5784C14.8549 22.1576 13.8662 22.2209 13.1047 21.7361C11.1056 20.4658 9.44776 18.808 8.17722 16.8089C7.69271 16.0468 7.75598 15.0584 8.3351 14.3499L9.70598 12.6724C9.86928 12.4723 9.92886 12.2104 9.86502 11.9715C9.32236 9.93745 8.21027 8.52124 6.46547 7.64143C6.36516 7.59099 6.25372 7.56591 6.13915 7.56591Z" fill="#FF9900"/>
<path d="M28.4849 15.2414C28.4754 15.2414 28.466 15.2411 28.4569 15.2408C28.0944 15.2257 27.8131 14.9196 27.8282 14.5574C27.9684 11.2111 26.6953 7.93841 24.3355 5.578C21.9754 3.21816 18.7094 1.93848 15.3561 2.08526C15.0072 2.09439 14.6878 1.81935 14.6727 1.45655C14.6576 1.0943 14.9388 0.788207 15.3012 0.773102C19.0139 0.615779 22.6446 2.03025 25.2641 4.64945C27.8832 7.26864 29.296 10.9002 29.1403 14.6123C29.1255 14.9652 28.8348 15.2414 28.4849 15.2414Z" fill="#FF9900"/>
<path d="M24.991 15.2414C24.9782 15.2414 24.965 15.2411 24.952 15.2402C24.5897 15.2188 24.3135 14.9082 24.3349 14.5462C24.4774 12.1251 23.5785 9.75561 21.8682 8.04528C20.1579 6.33497 17.7869 5.43835 15.3672 5.57857C15.0033 5.6028 14.6947 5.32377 14.6733 4.96153C14.6519 4.59958 14.9281 4.28892 15.2903 4.26755C18.0822 4.10139 20.8216 5.14137 22.7967 7.11673C24.7722 9.09211 25.8106 11.8281 25.6459 14.6232C25.6254 14.9723 25.3362 15.2414 24.991 15.2414Z" fill="#FF9900"/>
<path d="M21.501 15.2414C21.4805 15.2414 21.46 15.2405 21.4392 15.2385C21.0781 15.2049 20.8128 14.8848 20.8464 14.5237C20.9855 13.0326 20.4588 11.5705 19.4008 10.5126C18.3429 9.45489 16.882 8.92763 15.3897 9.067C15.0289 9.09977 14.7083 8.83529 14.6749 8.47419C14.6413 8.11308 14.9066 7.79302 15.2677 7.75939C17.151 7.58412 18.9945 8.24903 20.3294 9.58399C21.6647 10.9189 22.3296 12.764 22.154 14.6457C22.1224 14.986 21.8363 15.2414 21.501 15.2414Z" fill="#FF9900"/>
</g>
</svg>
