<svg width="50" height="51" viewBox="0 0 50 51" fill="none" xmlns="http://www.w3.org/2000/svg">
<path d="M9.472 28.414C9.86755 28.414 10.1883 28.0934 10.1883 27.6977V18.4422C10.1883 17.453 10.6808 16.5386 11.5081 15.9946C12.1091 15.5966 12.6065 15.0547 12.9465 14.4269C13.2885 13.7938 13.4694 13.0788 13.4694 12.3599V11.314H15.8336V12.353C15.8336 13.829 16.5651 15.1912 17.7918 15.9975C18.578 16.5106 19.1143 17.4106 19.1143 18.4422V27.6835C19.1143 28.079 19.435 28.3998 19.8306 28.3998C20.2263 28.3998 20.547 28.079 20.547 27.6835V18.4422C20.547 16.9345 19.773 15.5789 18.5766 14.7991C17.756 14.2597 17.2663 13.3454 17.2663 12.3531C17.2662 12.2806 17.2604 8.54483 17.2608 8.78093C17.2608 7.7788 16.4454 6.96338 15.4431 6.96338H13.853C12.8505 6.96338 12.0352 7.77871 12.0352 8.78093C12.0352 8.85341 12.0367 12.5961 12.0366 12.36C12.0366 12.8421 11.9152 13.3213 11.6861 13.7456C11.458 14.1668 11.1226 14.5315 10.7189 14.7991C9.48942 15.6072 8.75555 16.9689 8.75555 18.4422V27.6977C8.75555 28.0934 9.07639 28.414 9.472 28.414ZM13.468 8.78083C13.468 8.56848 13.6409 8.39605 13.8532 8.39605H15.4433C15.6557 8.39605 15.8281 8.56848 15.8281 8.78083V9.87957H13.4681L13.468 8.78083Z" fill="#FF9900"/>
<path d="M24.2076 28.3999C24.6032 28.3999 24.924 28.0792 24.924 27.6836V18.4423C24.924 17.4531 25.4165 16.5387 26.2434 15.9948C26.8443 15.597 27.3418 15.0553 27.6824 14.427C28.0246 13.7935 28.205 13.0786 28.205 12.3601V11.3142H30.569V12.3531C30.569 13.8316 31.3035 15.1941 32.5306 15.9952C32.9371 16.2642 33.2715 16.6301 33.5017 17.0596C33.7297 17.4765 33.8501 17.9547 33.8501 18.4423V27.6836C33.8501 28.0792 34.1705 28.3999 34.5664 28.3999C34.9624 28.3999 35.2827 28.0792 35.2827 27.6836V18.4423C35.2827 17.7148 35.1015 16.9991 34.7615 16.3778C34.4228 15.7453 33.9248 15.1998 33.3175 14.7978C32.4934 14.2599 32.0016 13.3458 32.0016 12.3531C32.0015 12.2805 31.9971 8.54484 31.9973 8.78094C31.9973 7.77881 31.1823 6.96338 30.1798 6.96338H28.5898C27.5873 6.96338 26.7722 7.77871 26.7722 8.78094C26.7722 8.91717 26.7722 12.4875 26.7722 12.3601C26.7722 12.8421 26.6513 13.3213 26.4224 13.7453C26.1937 14.1668 25.8586 14.5315 25.4542 14.7992C24.225 15.6072 23.4911 16.9693 23.4911 18.4422V27.6835C23.4912 28.0791 23.8121 28.3999 24.2076 28.3999ZM28.205 8.78094C28.205 8.56858 28.3778 8.39615 28.5898 8.39615H30.18C30.392 8.39615 30.5648 8.56858 30.5648 8.78094V9.87966H28.205V8.78094Z" fill="#FF9900"/>
<path d="M9.94197 45.1047H40.5185C44.7293 45.1047 48.1546 41.6791 48.1546 37.4686C48.1546 33.2581 44.7294 29.8325 40.5185 29.8325H9.94197C5.73147 29.8325 2.30594 33.2581 2.30594 37.4686C2.30594 41.6791 5.73157 45.1047 9.94197 45.1047ZM9.94197 31.2654H40.5185C43.9388 31.2654 46.7218 34.0479 46.7218 37.4686C46.7218 40.8893 43.9389 43.6718 40.5185 43.6718H9.94197C6.52134 43.6718 3.73871 40.8893 3.73871 37.4686C3.73871 34.0479 6.52134 31.2654 9.94197 31.2654Z" fill="#FF9900"/>
<path d="M11.4384 39.2376C11.834 39.2376 12.1548 38.9169 12.1548 38.5213V36.4155C12.1548 36.0199 11.834 35.6992 11.4384 35.6992C11.0428 35.6992 10.7221 36.0199 10.7221 36.4155V38.5213C10.722 38.9168 11.0428 39.2376 11.4384 39.2376Z" fill="white"/>
<path d="M18.3342 39.2376C18.7298 39.2376 19.0505 38.9169 19.0505 38.5213V36.4155C19.0505 36.0199 18.7298 35.6992 18.3342 35.6992C17.9386 35.6992 17.6178 36.0199 17.6178 36.4155V38.5213C17.6177 38.9168 17.9385 39.2376 18.3342 39.2376Z" fill="white"/>
<path d="M25.2305 39.2376C25.6265 39.2376 25.9468 38.9169 25.9468 38.5213V36.4155C25.9468 36.0199 25.6264 35.6992 25.2305 35.6992C24.8348 35.6992 24.5141 36.0199 24.5141 36.4155V38.5213C24.514 38.9168 24.8348 39.2376 25.2305 39.2376Z" fill="white"/>
<path d="M32.1262 39.2376C32.5222 39.2376 32.8425 38.9169 32.8425 38.5213V36.4155C32.8425 36.0199 32.5222 35.6992 32.1262 35.6992C31.7302 35.6992 31.4099 36.0199 31.4099 36.4155V38.5213C31.4099 38.9168 31.7303 39.2376 32.1262 39.2376Z" fill="white"/>
<path d="M39.022 39.2376C39.4179 39.2376 39.7383 38.9169 39.7383 38.5213V36.4155C39.7383 36.0199 39.4178 35.6992 39.022 35.6992C38.626 35.6992 38.3057 36.0199 38.3057 36.4155V38.5213C38.3057 38.9168 38.626 39.2376 39.022 39.2376Z" fill="white"/>
</svg>
