<svg width="50" height="51" viewBox="0 0 50 51" fill="none" xmlns="http://www.w3.org/2000/svg">
<mask id="mask0_1_369" style="mask-type:luminance" maskUnits="userSpaceOnUse" x="0" y="1" width="50" height="50">
<path d="M49.7401 1.52393H0.720459V50.5435H49.7401V1.52393Z" fill="white"/>
</mask>
<g mask="url(#mask0_1_369)">
<path d="M21.7941 12.7145C20.8722 12.7145 20.096 13.4366 20.0429 14.369C20.0429 14.3695 20.0427 14.37 20.0426 14.3706L19.7103 20.2042C19.691 20.5461 19.9523 20.8391 20.2941 20.8587C20.6405 20.88 20.9289 20.6169 20.9485 20.2749L21.084 17.8974H25.9689L26.506 27.3137C26.5248 27.6436 26.798 27.8984 27.1245 27.8984C27.1365 27.8984 27.1483 27.8981 27.1604 27.8974C27.5022 27.8778 27.7634 27.5849 27.7441 27.2429C26.92 12.7428 27.1039 15.9798 27.0124 14.3689C26.9607 13.4593 26.2061 12.7144 25.2613 12.7144L21.7941 12.7145ZM21.1552 16.6573L21.281 14.4411C21.2978 14.1556 21.5477 13.9556 21.7928 13.9548H25.2601C25.5335 13.9548 25.7583 14.1665 25.7719 14.4414L25.8982 16.6573H21.1552Z" fill="#FF9900"/>
<path d="M40.4386 39.7797H42.8192C43.5497 39.7797 44.1439 39.1855 44.1439 38.4553V36.0747C44.1439 35.3441 43.5497 34.75 42.8192 34.75H40.4386C39.7083 34.75 39.1142 35.3441 39.1142 36.0747V38.4553C39.1142 39.1855 39.7083 39.7797 40.4386 39.7797ZM40.3543 36.0746C40.3543 36.028 40.3921 35.99 40.4386 35.99H42.8192C42.8657 35.99 42.9037 36.028 42.9037 36.0746V38.4552C42.9037 38.5017 42.8657 38.5394 42.8192 38.5394H40.4386C40.392 38.5394 40.3543 38.5017 40.3543 38.4552V36.0746Z" fill="white"/>
<path d="M32.73 39.7797H35.1106C35.8411 39.7797 36.4353 39.1855 36.4353 38.4553V36.0747C36.4353 35.3441 35.8411 34.75 35.1106 34.75H32.73C31.9997 34.75 31.4056 35.3441 31.4056 36.0747V38.4553C31.4056 39.1855 31.9997 39.7797 32.73 39.7797ZM32.6457 36.0746C32.6457 36.028 32.6835 35.99 32.73 35.99H35.1106C35.1571 35.99 35.1951 36.028 35.1951 36.0746V38.4552C35.1951 38.5017 35.1571 38.5394 35.1106 38.5394H32.73C32.6834 38.5394 32.6457 38.5017 32.6457 38.4552V36.0746Z" fill="white"/>
<path d="M27.4021 34.75H25.0217C24.2912 34.75 23.697 35.3441 23.697 36.0747V38.4553C23.697 39.1855 24.2912 39.7797 25.0217 39.7797H27.4021C28.1325 39.7797 28.7268 39.1855 28.7268 38.4553V36.0747C28.7268 35.344 28.1325 34.75 27.4021 34.75ZM27.4866 38.4553C27.4866 38.5018 27.4486 38.5395 27.4021 38.5395H25.0217C24.9751 38.5395 24.9371 38.5017 24.9371 38.4553V36.0747C24.9371 36.0281 24.9751 35.9901 25.0217 35.9901H27.4021C27.4486 35.9901 27.4866 36.0281 27.4866 36.0747V38.4553Z" fill="white"/>
<path d="M22.9772 24.2155C22.9772 23.0485 22.0278 22.0991 20.8608 22.0991H7.33497C6.16798 22.0991 5.21861 23.0486 5.21861 24.2155V46.5077H4.0724C3.11833 46.5077 2.34235 47.2837 2.34235 48.2376C2.34235 49.1917 3.11842 49.9676 4.0724 49.9676L46.7832 49.9674C47.737 49.9674 48.5131 49.1914 48.5131 48.2375C48.5131 47.2837 47.7371 46.5077 46.7832 46.5077H46.1034V29.4244C46.1034 29.1105 45.9515 28.8133 45.6974 28.629C45.4433 28.4449 45.1127 28.394 44.8155 28.4912L38.3946 30.5956V29.4244C38.3946 29.1105 38.243 28.8133 37.989 28.6293C37.7344 28.445 37.4045 28.3933 37.1068 28.4912L30.6859 30.5954V29.4244C30.6859 29.1105 30.5342 28.8133 30.2802 28.6293C30.0257 28.445 29.6958 28.3933 29.3981 28.4912L22.9772 30.5957V24.2155ZM6.45865 24.2155C6.45865 23.7323 6.85177 23.3392 7.33497 23.3392H20.8608C21.3441 23.3392 21.7372 23.7323 21.7372 24.2155V46.5077H18.0497V42.779C18.0497 41.706 17.1769 40.8331 16.104 40.8331H12.092C11.0191 40.8331 10.1461 41.706 10.1461 42.779V46.5077H6.45865V24.2155ZM16.8096 46.5077H11.3862V42.779C11.3862 42.3898 11.7027 42.0731 12.092 42.0731H16.104C16.4931 42.0731 16.8097 42.3897 16.8097 42.779L16.8096 46.5077ZM47.2731 48.2376C47.2731 48.5077 47.0533 48.7274 46.7833 48.7274L4.07249 48.7276C3.80241 48.7276 3.58248 48.5077 3.58248 48.2376C3.58248 47.9676 3.80241 47.7478 4.07249 47.7478H46.7833C47.0533 47.7478 47.2731 47.9676 47.2731 48.2376ZM44.8633 29.7807V46.5077H38.3946V31.9005L44.8633 29.7807ZM37.1545 29.7807V46.5077H30.6858V31.9005L37.1545 29.7807ZM22.9774 31.9005L29.4458 29.7807V46.5077H22.9774V31.9005Z" fill="#FF9900"/>
<path d="M9.74718 28.2664H18.4492C19.4663 28.2664 20.2936 27.439 20.2936 26.422C20.2936 25.405 19.4662 24.5776 18.4492 24.5776H9.74718C8.73041 24.5776 7.90302 25.4051 7.90302 26.422C7.90302 27.439 8.73031 28.2664 9.74718 28.2664ZM9.74718 25.8177H18.4492C18.7825 25.8177 19.0536 26.0887 19.0536 26.422C19.0536 26.7553 18.7825 27.0264 18.4492 27.0264H9.74718C9.41419 27.0264 9.14315 26.7553 9.14315 26.422C9.14315 26.0887 9.41409 25.8177 9.74718 25.8177Z" fill="#FF9900"/>
<path d="M9.34321 34.0925H11.779C12.5745 34.0925 13.2217 33.4453 13.2217 32.6497V30.9525C13.2217 30.1569 12.5745 29.5098 11.779 29.5098H9.34321C8.54779 29.5098 7.90057 30.1569 7.90057 30.9525V32.6497C7.90067 33.4453 8.54779 34.0925 9.34321 34.0925ZM9.14071 30.9524C9.14071 30.8406 9.23157 30.7498 9.34321 30.7498H11.779C11.8907 30.7498 11.9816 30.8406 11.9816 30.9524V32.6496C11.9816 32.7615 11.8907 32.8522 11.779 32.8522H9.34321C9.23157 32.8522 9.14071 32.7614 9.14071 32.6496V30.9524Z" fill="#FF9900"/>
<path d="M18.8508 29.5093H16.4152C15.6197 29.5093 14.9725 30.1565 14.9725 30.9521V32.6493C14.9725 33.4449 15.6197 34.092 16.4152 34.092H18.8508C19.6465 34.092 20.2936 33.4449 20.2936 32.6493V30.9521C20.2936 30.1565 19.6465 29.5093 18.8508 29.5093ZM19.0535 32.6494C19.0535 32.7612 18.9626 32.852 18.8508 32.852H16.4152C16.3035 32.852 16.2126 32.7611 16.2126 32.6494V30.9522C16.2126 30.8403 16.3035 30.7496 16.4152 30.7496H18.8508C18.9627 30.7496 19.0535 30.8404 19.0535 30.9522V32.6494Z" fill="#FF9900"/>
<path d="M11.7791 39.9324C12.5746 39.9324 13.2218 39.2852 13.2218 38.4896V36.7925C13.2218 35.9969 12.5746 35.3496 11.7791 35.3496H9.34321C8.54779 35.3496 7.90057 35.9969 7.90057 36.7925V38.4896C7.90057 39.2852 8.54779 39.9324 9.34321 39.9324H11.7791ZM9.14071 38.4896V36.7925C9.14071 36.6805 9.23157 36.5898 9.34321 36.5898H11.779C11.8907 36.5898 11.9816 36.6806 11.9816 36.7925V38.4896C11.9816 38.6015 11.8907 38.6923 11.779 38.6923H9.34321C9.23157 38.6923 9.14071 38.6015 9.14071 38.4896Z" fill="#FF9900"/>
<path d="M18.8508 35.3491H16.4152C15.6197 35.3491 14.9725 35.9964 14.9725 36.792V38.489C14.9725 39.2847 15.6197 39.9319 16.4152 39.9319H18.8508C19.6465 39.9319 20.2936 39.2847 20.2936 38.489V36.792C20.2936 35.9964 19.6465 35.3491 18.8508 35.3491ZM19.0535 38.4891C19.0535 38.6011 18.9626 38.6919 18.8508 38.6919H16.4152C16.3035 38.6919 16.2126 38.601 16.2126 38.4891V36.7921C16.2126 36.6801 16.3035 36.5893 16.4152 36.5893H18.8508C18.9627 36.5893 19.0535 36.6802 19.0535 36.7921V38.4891Z" fill="#FF9900"/>
<path d="M12.9963 9.19328C12.9963 9.38362 13.0263 9.56696 13.0815 9.7392H11.6168C10.6292 9.7392 9.83069 10.5368 9.83069 11.5253C9.83069 12.5101 10.632 13.3113 11.6168 13.3113H18.0299C19.0124 13.3113 19.8116 12.5101 19.8116 11.5253C19.8116 11.3349 19.7818 11.1515 19.7266 10.9794H21.1909C22.1757 10.9794 22.977 10.1781 22.977 9.19328C22.977 8.20848 22.1757 7.40723 21.1909 7.40723H14.7821C13.7948 7.40723 12.9963 8.20494 12.9963 9.19328ZM21.7371 9.19328C21.7371 9.49438 21.4922 9.7392 21.1911 9.7392H18.03C17.6876 9.7392 17.41 10.0168 17.41 10.3592C17.41 10.7016 17.6876 10.9793 18.03 10.9793C18.3286 10.9793 18.5717 11.2242 18.5717 11.5252C18.5717 11.8262 18.3287 12.071 18.03 12.071H11.6169C11.3158 12.071 11.071 11.8261 11.071 11.5252C11.071 11.2263 11.3098 10.9793 11.6169 10.9793H14.7823C15.1247 10.9793 15.4024 10.7016 15.4024 10.3592C15.4024 10.0168 15.1247 9.7392 14.7823 9.7392C14.4812 9.7392 14.2364 9.4943 14.2364 9.19328C14.2364 8.88997 14.4801 8.64736 14.7823 8.64736H21.1911C21.4922 8.64736 21.7371 8.89218 21.7371 9.19328Z" fill="#FF9900"/>
<path d="M3.73345 8.0036H10.1466C11.129 8.0036 11.9282 7.20234 11.9282 6.21755C11.9282 6.02722 11.8984 5.84386 11.8432 5.67163H13.3076C14.2927 5.67163 15.0938 4.87036 15.0938 3.88557C15.0938 2.90078 14.2928 2.09961 13.3077 2.09961H6.89894C5.91137 2.09961 5.11289 2.89732 5.11289 3.88567C5.11289 4.076 5.14295 4.25934 5.19809 4.43159H3.73345C2.74932 4.43159 1.94739 5.22576 1.94739 6.21764C1.94749 7.20244 2.74864 8.0036 3.73345 8.0036ZM3.73345 5.67163H6.89885C7.24131 5.67163 7.51887 5.39407 7.51887 5.05161C7.51887 4.70914 7.24131 4.43159 6.89885 4.43159C6.59774 4.43159 6.35293 4.18668 6.35293 3.88567C6.35293 3.58236 6.59668 3.33975 6.89885 3.33975H13.3077C13.6088 3.33975 13.8539 3.58466 13.8539 3.88567C13.8539 4.18668 13.6088 4.43159 13.3077 4.43159H10.1467C9.80422 4.43159 9.52666 4.70914 9.52666 5.05161C9.52666 5.39407 9.80422 5.67163 10.1467 5.67163C10.4453 5.67163 10.6883 5.91653 10.6883 6.21755C10.6883 6.51856 10.4454 6.76346 10.1467 6.76346H3.73345C3.43234 6.76346 3.18753 6.51856 3.18753 6.21755C3.18753 5.92266 3.42209 5.67163 3.73345 5.67163Z" fill="#FF9900"/>
</g>
</svg>
