<svg width="50" height="51" viewBox="0 0 50 51" fill="none" xmlns="http://www.w3.org/2000/svg">
<path d="M10.4392 29.104H6.59497C5.69643 29.104 4.96564 29.8348 4.96564 30.7331V32.802C4.96564 33.7004 5.69643 34.4314 6.59497 34.4314H10.4391C11.3378 34.4314 12.0685 33.7004 12.0685 32.802V30.7331C12.0686 29.8348 11.3379 29.104 10.4392 29.104ZM10.9724 32.802C10.9724 33.0961 10.7332 33.3352 10.4392 33.3352H6.59497C6.30094 33.3352 6.06188 33.0961 6.06188 32.802V30.7331C6.06188 30.4393 6.30094 30.2002 6.59497 30.2002H10.4391C10.7332 30.2002 10.9723 30.4393 10.9723 30.7331L10.9724 32.802Z" fill="#FF9900"/>
<path d="M18.8021 29.104H14.9579C14.0594 29.104 13.3286 29.8348 13.3286 30.7331V32.802C13.3286 33.7004 14.0594 34.4314 14.9579 34.4314H18.8021C19.7007 34.4314 20.4315 33.7004 20.4315 32.802V30.7331C20.4315 29.8348 19.7007 29.104 18.8021 29.104ZM19.3353 32.802C19.3353 33.0961 19.0962 33.3352 18.8021 33.3352H14.9579C14.6639 33.3352 14.4249 33.0961 14.4249 32.802V30.7331C14.4249 30.4393 14.6639 30.2002 14.9579 30.2002H18.8021C19.0962 30.2002 19.3353 30.4393 19.3353 30.7331V32.802Z" fill="#FF9900"/>
<path d="M27.1647 29.104H23.3205C22.4219 29.104 21.6912 29.8348 21.6912 30.7331V32.802C21.6912 33.7004 22.4219 34.4314 23.3205 34.4314H27.1647C28.0632 34.4314 28.794 33.7004 28.794 32.802V30.7331C28.794 29.8348 28.0631 29.104 27.1647 29.104ZM27.6978 32.802C27.6978 33.0961 27.4587 33.3352 27.1647 33.3352H23.3205C23.0265 33.3352 22.7874 33.0961 22.7874 32.802V30.7331C22.7874 30.4393 23.0265 30.2002 23.3205 30.2002H27.1647C27.4587 30.2002 27.6978 30.4393 27.6978 30.7331V32.802Z" fill="#FF9900"/>
<path d="M10.4392 37.6938H6.59497C5.69643 37.6938 4.96564 38.4246 4.96564 39.3231V41.392C4.96564 42.2903 5.69643 43.0213 6.59497 43.0213H10.4391C11.3378 43.0213 12.0685 42.2903 12.0685 41.392V39.3231C12.0686 38.4246 11.3379 37.6938 10.4392 37.6938ZM10.9724 41.392C10.9724 41.686 10.7332 41.9251 10.4392 41.9251H6.59497C6.30094 41.9251 6.06188 41.686 6.06188 41.392V39.3231C6.06188 39.0292 6.30094 38.7901 6.59497 38.7901H10.4391C10.7332 38.7901 10.9723 39.0292 10.9723 39.3231L10.9724 41.392Z" fill="#FF9900"/>
<path d="M18.8021 37.6938H14.9579C14.0594 37.6938 13.3286 38.4246 13.3286 39.3231V41.392C13.3286 42.2903 14.0594 43.0213 14.9579 43.0213H18.8021C19.7007 43.0213 20.4315 42.2903 20.4315 41.392V39.3231C20.4315 38.4246 19.7007 37.6938 18.8021 37.6938ZM19.3353 41.392C19.3353 41.686 19.0962 41.9251 18.8021 41.9251H14.9579C14.6639 41.9251 14.4249 41.686 14.4249 41.392V39.3231C14.4249 39.0292 14.6639 38.7901 14.9579 38.7901H18.8021C19.0962 38.7901 19.3353 39.0292 19.3353 39.3231V41.392Z" fill="#FF9900"/>
<path d="M27.1647 37.6938H23.3205C22.4219 37.6938 21.6912 38.4246 21.6912 39.3231V41.392C21.6912 42.2903 22.4219 43.0213 23.3205 43.0213H27.1647C28.0632 43.0213 28.794 42.2903 28.794 41.392V39.3231C28.794 38.4246 28.0631 37.6938 27.1647 37.6938ZM27.6978 41.392C27.6978 41.686 27.4587 41.9251 27.1647 41.9251H23.3205C23.0265 41.9251 22.7874 41.686 22.7874 41.392V39.3231C22.7874 39.0292 23.0265 38.7901 23.3205 38.7901H27.1647C27.4587 38.7901 27.6978 39.0292 27.6978 39.3231V41.392Z" fill="#FF9900"/>
<path d="M41.7638 19.0728H34.7363C33.5232 19.0728 32.5363 20.0595 32.5363 21.2727C32.5363 22.4857 33.5232 23.4727 34.7363 23.4727H41.7638C42.9767 23.4727 43.9638 22.4858 43.9638 21.2727C43.9638 20.0596 42.9766 19.0728 41.7638 19.0728ZM41.7638 22.3764H34.7363C34.1278 22.3764 33.6325 21.8813 33.6325 21.2727C33.6325 20.664 34.1278 20.1689 34.7363 20.1689H41.7638C42.3722 20.1689 42.8675 20.664 42.8675 21.2727C42.8675 21.8813 42.3722 22.3764 41.7638 22.3764Z" fill="#FF9900"/>
<path d="M41.7638 25.1997H34.7363C33.5232 25.1997 32.5363 26.1866 32.5363 27.3997C32.5363 28.6127 33.5232 29.5996 34.7363 29.5996H41.7638C42.9767 29.5996 43.9638 28.6128 43.9638 27.3997C43.9638 26.1867 42.9766 25.1997 41.7638 25.1997ZM41.7638 28.5034H34.7363C34.1278 28.5034 33.6325 28.0083 33.6325 27.3997C33.6325 26.7911 34.1278 26.296 34.7363 26.296H41.7638C42.3722 26.296 42.8675 26.7911 42.8675 27.3997C42.8675 28.0083 42.3722 28.5034 41.7638 28.5034Z" fill="#FF9900"/>
<path d="M41.7638 31.3262H34.7363C33.5232 31.3262 32.5363 32.313 32.5363 33.5262C32.5363 34.7392 33.5232 35.7261 34.7363 35.7261H41.7638C42.9767 35.7261 43.9638 34.7393 43.9638 33.5262C43.9638 32.3131 42.9766 31.3262 41.7638 31.3262ZM41.7638 34.6298H34.7363C33.276 34.6298 33.2763 32.4224 34.7363 32.4224H41.7638C42.3722 32.4224 42.8675 32.9175 42.8675 33.5262C42.8675 34.1348 42.3722 34.6298 41.7638 34.6298Z" fill="#FF9900"/>
<path d="M7.45042 24.1035C7.71266 24.1035 7.94464 23.9145 7.98992 23.6471L9.37941 15.4601H15.5685L16.9581 23.6471C17.0088 23.9459 17.2946 24.1453 17.5901 24.0959C17.8885 24.0452 18.0893 23.7622 18.0387 23.4637C15.7982 10.5071 15.9998 10.8546 15.6908 10.3201C15.3704 9.76433 14.7725 9.40186 14.0973 9.40186H10.8496C9.9965 9.40186 9.27333 9.98329 9.07141 10.799C9.00803 11.0534 6.91561 23.4268 6.90938 23.4638C6.85289 23.7971 7.109 24.1035 7.45042 24.1035ZM9.56554 14.3639C10.1599 10.8627 10.1139 11.1004 10.1469 11.0026C10.2481 10.7054 10.5275 10.4995 10.8515 10.4995H14.0963C14.3696 10.4995 14.6118 10.6456 14.7417 10.8694C14.8609 11.0761 14.7883 10.9638 15.382 14.3639H9.56554Z" fill="#FF9900"/>
<path d="M11.9408 8.90726C12.2191 8.78787 12.3476 8.46551 12.228 8.18738C11.8883 7.39704 12.7771 6.4447 13.6415 6.27992C14.6495 6.08739 15.7297 6.48739 16.7764 6.87352C17.9257 7.24299 19.3801 7.87402 20.9135 7.30819C21.741 7.00239 22.4158 6.23321 22.632 5.34855C22.8037 4.64839 22.6492 3.96824 22.2085 3.48245C22.0044 3.25814 21.6579 3.24176 21.4341 3.44483C21.21 3.64819 21.1929 3.99476 21.3964 4.21899C21.6462 4.49425 21.6271 4.84342 21.5676 5.08794C21.4391 5.61232 21.0141 6.10242 20.5338 6.27982C19.4126 6.69353 18.1744 6.19309 17.156 5.84517C16.0244 5.42764 14.7423 4.95343 13.4359 5.20303C11.8944 5.49724 10.5865 7.14294 11.2211 8.62032C11.3408 8.89874 11.6636 9.02684 11.9408 8.90726Z" fill="white"/>
<path d="M25.4402 5.44388C29.0792 3.99685 33.2157 5.77917 34.6634 9.41744C34.7759 9.70074 35.097 9.83545 35.3754 9.72401C35.6566 9.61217 35.7939 9.29346 35.682 9.01207C34.0105 4.81189 29.2345 2.75384 25.0349 4.42539C24.7537 4.53721 24.6164 4.85594 24.7283 5.13732C24.84 5.4189 25.1594 5.55648 25.4402 5.44388Z" fill="white"/>
<path d="M26.0713 7.03166C25.7901 7.1435 25.6527 7.46221 25.7647 7.74341C25.8765 8.02479 26.1947 8.16285 26.4767 8.05007C28.677 7.17509 31.1816 8.25275 32.0574 10.4544C32.1697 10.7377 32.4907 10.8726 32.7693 10.761C33.0505 10.6492 33.1878 10.3304 33.0759 10.0492C31.9771 7.28624 28.8362 5.93208 26.0713 7.03166Z" fill="white"/>
<path d="M38.3963 11.5441C38.6376 11.7278 38.9819 11.6795 39.1643 11.4394L40.9564 9.08134C41.0574 8.94845 41.0923 8.7766 41.0512 8.61479C41.0102 8.45299 40.8975 8.31857 40.7451 8.25012L39.7124 7.78423L40.8279 5.98947C40.9878 5.7324 40.9089 5.39443 40.652 5.23455C40.3955 5.07485 40.0568 5.15335 39.8973 5.41062L38.4511 7.73704C38.3675 7.87117 38.3461 8.03479 38.3921 8.18616C38.4382 8.33723 38.547 8.46113 38.6912 8.52604L39.6667 8.96617L38.2915 10.7759C38.1084 11.017 38.1551 11.3609 38.3963 11.5441Z" fill="white"/>
<path d="M21.4387 13.354C21.3699 13.0594 21.0751 12.877 20.7803 12.9448C20.4855 13.0136 20.3022 13.3084 20.371 13.6032L20.9933 16.2707C21.0293 16.4245 21.1297 16.5555 21.2691 16.6298C21.4086 16.7044 21.5739 16.7146 21.721 16.6587L22.7226 16.2802L23.0295 18.5325C23.0669 18.8072 23.3022 19.0065 23.5719 19.0065C23.5965 19.0065 23.6215 19.0048 23.6465 19.0015C23.9466 18.9606 24.1568 18.6843 24.1157 18.3843L23.7157 15.4498C23.6931 15.2844 23.5965 15.1384 23.453 15.0529C23.3096 14.9678 23.1344 14.9525 22.9788 15.0114L21.9186 15.4123L21.4387 13.354Z" fill="white"/>
<path d="M47.6405 46.5579H46.1607V12.4581C46.1607 11.2562 44.9166 10.4485 43.814 10.9472L31.2814 16.6635C30.6929 16.936 30.3129 17.5285 30.3129 18.1731V25.1995H4.88664C3.48786 25.1995 2.34949 26.3377 2.34949 27.7364V47.1046C2.34949 47.4073 2.59497 47.6527 2.89761 47.6527C6.52334 47.6528 45.2433 47.654 47.6405 47.6541C47.9431 47.6541 48.1885 47.4088 48.1885 47.106C48.1885 46.8032 47.9431 46.5579 47.6405 46.5579ZM3.44573 27.7365C3.44573 26.9421 4.09199 26.2959 4.88664 26.2959H30.3129C30.3138 50.634 30.3136 45.9454 30.3136 46.5565H3.44573V27.7365ZM35.3009 46.5564V41.0245C35.3009 39.4058 36.618 38.0888 38.2371 38.0888C39.8556 38.0888 41.1727 39.4058 41.1727 41.0245V46.5564H35.3009ZM42.269 46.5579V41.0245C42.269 38.8012 40.4601 36.9925 38.2371 36.9925C36.0135 36.9925 34.2047 38.8012 34.2047 41.0245V46.5579C34.1341 46.5579 31.2464 46.5579 31.4099 46.5579C31.4098 43.1045 31.4094 26.7545 31.4092 18.1731C31.4092 17.9541 31.5398 17.7518 31.7389 17.6597L44.2673 11.9455C44.6451 11.7751 45.0644 12.0536 45.0644 12.4582V46.558L42.269 46.5579Z" fill="#FF9900"/>
</svg>
