<svg width="60" height="61" viewBox="0 0 60 61" fill="none" xmlns="http://www.w3.org/2000/svg">
<path d="M56.1334 46.4287H54.6977L50.6187 20.9473C51.6011 20.6524 52.3231 19.7543 52.3231 18.6816C52.3231 17.3677 51.2515 16.2985 49.9343 16.2985H39.1608C38.7486 16.2985 38.4143 16.6327 38.4143 17.045C38.4143 17.4573 38.7486 17.7915 39.1608 17.7915H49.9343C50.4282 17.7915 50.8302 18.191 50.8302 18.6815C50.8302 19.1691 50.4283 19.5656 49.9343 19.5656H49.7611H39.6865C39.2742 19.5656 38.9401 19.8997 38.9401 20.312C38.9401 20.7243 39.2742 21.0585 39.6865 21.0585H49.1245L53.1857 46.4273C52.1698 46.4274 57.175 46.4269 41.5762 46.4283L36.4827 14.4582C37.6997 14.1649 38.6096 13.0738 38.6096 11.768C38.6096 10.2383 37.3651 8.99365 35.8356 8.99365H11.0415C9.51212 8.99365 8.26759 10.2382 8.26759 11.768C8.26759 13.0738 9.17762 14.1649 10.3945 14.4582L5.30109 46.4287H3.86615C2.38774 46.4287 1.18481 47.6313 1.18481 49.1098C1.18481 50.5881 2.38762 51.7913 3.86615 51.7913H56.1334C57.6119 51.7913 58.8148 50.5881 58.8148 49.1098C58.8146 47.6313 57.6119 46.4287 56.1334 46.4287ZM9.76063 11.7683C9.76063 11.0621 10.3353 10.4871 11.0415 10.4871H35.8356C36.5418 10.4871 37.1166 11.0621 37.1166 11.7683C37.1166 12.4745 36.5418 13.0497 35.8356 13.0497C27.3271 13.0497 19.652 13.0497 11.0415 13.0497C10.3353 13.0497 9.76063 12.4745 9.76063 11.7683ZM11.8929 14.5426H34.9845L40.0645 46.4286H6.81281L11.8929 14.5426ZM56.1334 50.2982H3.86615C3.21097 50.2982 2.67786 49.7652 2.67786 49.1098C2.67786 48.4548 3.21085 47.9217 3.86615 47.9217H56.1334C56.7886 47.9217 57.3217 48.4549 57.3217 49.1098C57.3217 49.7652 56.7886 50.2982 56.1334 50.2982Z" fill="#FF9900"/>
<path d="M22.8387 22.1577C22.2679 22.9292 17.2616 29.7871 17.2616 32.9427C17.2616 36.3469 20.031 39.1165 23.4348 39.1165C26.8434 39.1165 29.6162 36.3469 29.6162 32.9427C29.6162 29.787 24.6099 22.9291 24.039 22.1577C23.7573 21.7762 23.1205 21.7762 22.8387 22.1577ZM23.4348 37.6236C20.8541 37.6236 18.7546 35.524 18.7546 32.9429C18.7546 30.9483 21.7313 26.3047 23.4389 23.8787C25.1467 26.3043 28.1233 30.9465 28.1233 32.9429C28.1232 35.524 26.0199 37.6236 23.4348 37.6236Z" fill="#222222"/>
</svg>
