<svg width="31" height="31" viewBox="0 0 31 31" fill="none" xmlns="http://www.w3.org/2000/svg">
<mask id="mask0_1_1743" style="mask-type:luminance" maskUnits="userSpaceOnUse" x="0" y="0" width="30" height="30">
<path d="M29.718 0.254883H0.685791V29.2871H29.718V0.254883Z" fill="white"/>
</mask>
<g mask="url(#mask0_1_1743)">
<path d="M19.8312 28.5606C19.7106 28.5606 19.5892 28.5501 19.4687 28.5285C15.3173 27.7812 11.179 25.5182 7.81654 22.1557C4.45405 18.7933 2.19111 14.6549 1.44383 10.5036C1.30304 9.72012 1.63136 8.90529 2.28032 8.42763C3.1114 7.81601 4.00688 7.24743 4.94141 6.73869C5.56101 6.40153 6.29148 6.38272 6.89683 6.68768C8.96625 7.73079 10.338 9.46818 10.9738 11.8514C11.1463 12.4964 10.9926 13.1958 10.5631 13.7218L9.19197 15.3997C8.97224 15.6687 8.94544 16.0398 9.12557 16.3231C10.292 18.1586 11.8137 19.6802 13.6491 20.8465C13.9322 21.0268 14.3032 20.9997 14.5726 20.7803L16.2501 19.4095C16.7765 18.9797 17.4751 18.8263 18.1212 18.9985C20.5041 19.6346 22.2415 21.0063 23.2846 23.0757C23.5899 23.6805 23.571 24.4112 23.2339 25.0309C22.7248 25.9654 22.1563 26.8609 21.5444 27.692C21.1405 28.2409 20.4949 28.5606 19.8312 28.5606ZM5.97912 7.78466C5.84203 7.78466 5.70066 7.82057 5.56956 7.89211C4.6869 8.37262 3.84243 8.90872 3.05896 9.48528C2.81015 9.66854 2.68361 9.97687 2.73661 10.2711C3.43659 14.1614 5.57042 18.0522 8.74508 21.2272C11.9201 24.4018 15.8109 26.5357 19.7012 27.2357C19.9959 27.2884 20.3037 27.1618 20.4867 26.9133C21.0636 26.1298 21.5996 25.2854 22.0805 24.4027C22.2112 24.1621 22.2232 23.8871 22.112 23.6671C21.2323 21.922 19.8161 20.81 17.7823 20.2673C17.544 20.2041 17.2813 20.263 17.0809 20.4266L15.4037 21.7972C14.6949 22.3764 13.7061 22.4396 12.9446 21.9548C10.9456 20.6846 9.28773 19.0267 8.01718 17.0276C7.53267 16.2656 7.59594 15.2771 8.17507 14.5686L9.54594 12.8911C9.70925 12.691 9.76882 12.4291 9.70498 12.1903C9.16233 10.1562 8.05024 8.73999 6.30544 7.86018C6.20512 7.80974 6.09369 7.78466 5.97912 7.78466Z" fill="#FF9900"/>
<path d="M28.3247 15.4606C28.3153 15.4606 28.3059 15.4603 28.2968 15.46C27.9343 15.4449 27.6529 15.1388 27.668 14.7766C27.8083 11.4303 26.5352 8.15763 24.1754 5.79722C21.8152 3.43738 18.5493 2.15771 15.196 2.30448C14.8471 2.31361 14.5276 2.03858 14.5125 1.67577C14.4974 1.31353 14.7787 1.00743 15.141 0.992325C18.8537 0.835002 22.4844 2.24948 25.1039 4.86867C27.7231 7.48786 29.1358 11.1194 28.9802 14.8315C28.9654 15.1844 28.6747 15.4606 28.3247 15.4606Z" fill="#FF9900"/>
<path d="M24.8308 15.4608C24.818 15.4608 24.8049 15.4605 24.7918 15.4596C24.4296 15.4382 24.1534 15.1276 24.1748 14.7657C24.3172 12.3446 23.4184 9.97505 21.708 8.26472C19.9977 6.55441 17.6267 5.65779 15.2071 5.798C14.8431 5.82224 14.5345 5.54321 14.5131 5.18097C14.4917 4.81902 14.7679 4.50836 15.1302 4.48698C17.922 4.32082 20.6615 5.36081 22.6365 7.33617C24.612 9.31155 25.6505 12.0476 25.4858 14.8426C25.4653 15.1918 25.176 15.4608 24.8308 15.4608Z" fill="#FF9900"/>
<path d="M21.341 15.4608C21.3205 15.4608 21.3 15.4599 21.2792 15.4579C20.9181 15.4243 20.6527 15.1042 20.6864 14.7431C20.8255 13.252 20.2987 11.7899 19.2408 10.732C18.1829 9.67429 16.722 9.14703 15.2297 9.2864C14.8688 9.31917 14.5482 9.05469 14.5148 8.69359C14.4812 8.33248 14.7466 8.01242 15.1077 7.97879C16.991 7.80351 18.8344 8.46843 20.1693 9.80339C21.5046 11.1383 22.1696 12.9834 21.9939 14.8651C21.9624 15.2054 21.6762 15.4608 21.341 15.4608Z" fill="#FF9900"/>
</g>
</svg>
