<svg width="61" height="61" viewBox="0 0 61 61" fill="none" xmlns="http://www.w3.org/2000/svg">
<path d="M40.2907 54.542C40.767 54.542 41.1532 54.1559 41.1532 53.6796V46.3014C41.1532 45.8251 40.767 45.439 40.2907 45.439H30.5416C30.0654 45.439 29.6792 45.8251 29.6792 46.3014V53.6796C29.6792 54.1559 30.0654 54.542 30.5416 54.542C31.0179 54.542 31.4041 54.1559 31.4041 53.6796V47.1639H39.4282V53.6796C39.4283 54.1559 39.8145 54.542 40.2907 54.542Z" fill="#222222"/>
<path d="M5.66088 57.9919H55.3394C55.8158 57.9919 56.2018 57.6058 56.2018 57.1295C56.2018 56.6532 55.8158 56.2671 55.3394 56.2671H52.0445V31.1604C52.0445 30.8306 51.8567 30.53 51.5602 30.3856C51.265 30.2412 50.9117 30.2773 50.6514 30.4803L44.1618 35.5432V31.1604C44.1618 30.8306 43.974 30.53 43.6775 30.3856C43.3828 30.2412 43.0285 30.2773 42.7687 30.4803L36.2787 35.5432V31.1604C36.2787 30.8306 36.0909 30.53 35.7942 30.3856C35.4991 30.2412 35.1458 30.2773 34.8855 30.4803L28.3955 35.5432V31.1604C28.3955 30.8306 28.2077 30.53 27.9111 30.3856C27.616 30.2412 27.2626 30.2773 27.0024 30.4803L22.5696 33.939C22.1939 34.2322 22.1274 34.7742 22.42 35.1498C22.714 35.525 23.2556 35.5924 23.6308 35.2993L26.6705 32.9275V37.3098C26.6705 37.6395 26.8583 37.9402 27.1548 38.0846C27.4508 38.2303 27.8042 38.1933 28.0636 37.9899L34.5537 32.927V37.3096C34.5537 37.6394 34.7414 37.94 35.0381 38.0845C35.3345 38.2302 35.6874 38.1932 35.9468 37.9897L42.4368 32.9269V37.3095C42.4368 37.6393 42.6246 37.9399 42.9212 38.0844C43.2176 38.2301 43.5701 38.1931 43.83 37.9896L50.3196 32.9268V56.2666C46.2306 56.2666 28.529 56.2666 20.5129 56.2666V23.7638C22.4213 23.592 23.927 22.0018 23.927 20.0495C23.927 17.9829 22.2459 16.3018 20.1794 16.3018H9.29685C7.23035 16.3018 5.54919 17.9829 5.54919 20.0495C5.54919 21.9989 7.05088 23.5873 8.95531 23.763V56.2666H5.66088C5.18461 56.2666 4.79846 56.6527 4.79846 57.129C4.79846 57.6053 5.18461 57.9919 5.66088 57.9919ZM7.27415 20.0498C7.27415 18.9346 8.18165 18.0271 9.29685 18.0271H20.1793C21.2945 18.0271 22.202 18.9346 22.202 20.0498C22.202 21.1653 21.2945 22.073 20.1793 22.073C20.511 22.0725 15.445 22.0712 9.29685 22.073C8.18176 22.073 7.27415 21.1655 7.27415 20.0498ZM10.6803 23.7979H18.7879V56.267H10.6803V23.7979Z" fill="#FF9900"/>
<path d="M14.7375 14.1834C15.2139 14.1834 15.6 13.7972 15.6 13.321C15.6 11.3025 17.242 9.66058 19.2604 9.66058H32.9084C35.8778 9.66058 38.2935 7.24494 38.2935 4.27556V3.65613C38.2935 3.17985 37.9073 2.7937 37.431 2.7937C36.9548 2.7937 36.5686 3.17985 36.5686 3.65613V4.27556C36.5686 6.29365 34.9266 7.93562 32.9085 7.93562H19.2606C16.2912 7.93562 13.8751 10.3516 13.8751 13.321C13.875 13.7971 14.2613 14.1834 14.7375 14.1834Z" fill="#222222"/>
<path d="M15.6192 28.0723H13.8568C13.3805 28.0723 12.9944 28.4584 12.9944 28.9347C12.9944 29.411 13.3805 29.7971 13.8568 29.7971H15.6192C16.0955 29.7971 16.4817 29.411 16.4817 28.9347C16.4817 28.4584 16.0955 28.0723 15.6192 28.0723Z" fill="#222222"/>
<path d="M15.6192 35.4707H13.8568C13.3805 35.4707 12.9944 35.8569 12.9944 36.3331C12.9944 36.8094 13.3805 37.1956 13.8568 37.1956H15.6192C16.0955 37.1956 16.4817 36.8094 16.4817 36.3331C16.4817 35.8569 16.0955 35.4707 15.6192 35.4707Z" fill="#222222"/>
<path d="M15.6192 42.8689H13.8568C13.3805 42.8689 12.9944 43.2551 12.9944 43.7313C12.9944 44.2077 13.3805 44.5937 13.8568 44.5937H15.6192C16.0955 44.5937 16.4817 44.2077 16.4817 43.7313C16.4817 43.2551 16.0955 42.8689 15.6192 42.8689Z" fill="#222222"/>
<path d="M15.6192 50.2676H13.8568C13.3805 50.2676 12.9944 50.6537 12.9944 51.13C12.9944 51.6063 13.3805 51.9924 13.8568 51.9924H15.6192C16.0955 51.9924 16.4817 51.6063 16.4817 51.13C16.4817 50.6537 16.0955 50.2676 15.6192 50.2676Z" fill="#222222"/>
</svg>
