<svg width="31" height="31" viewBox="0 0 31 31" fill="none" xmlns="http://www.w3.org/2000/svg">
<mask id="mask0_1_1754" style="mask-type:luminance" maskUnits="userSpaceOnUse" x="1" y="0" width="30" height="30">
<path d="M30.5857 0.620117H1.55347V29.6524H30.5857V0.620117Z" fill="white"/>
</mask>
<g mask="url(#mask0_1_1754)">
<path d="M25.2706 4.13672C22.7876 4.13672 20.6967 5.84827 20.1159 8.15355H3.67736C3.12183 8.15355 2.59692 8.36648 2.19819 8.75336L2.19694 8.75455L2.19291 8.75841C1.78057 9.16146 1.55347 9.70093 1.55347 10.2774V24.0129C1.55347 24.5979 1.79832 25.1624 2.22506 25.5621L2.22762 25.5645C2.62239 25.9335 3.1372 26.1368 3.67736 26.1368H23.7137C24.2522 26.1368 24.7656 25.9349 25.1596 25.5682C25.1624 25.5656 25.1652 25.5631 25.168 25.5604C25.5936 25.1606 25.8376 24.5969 25.8376 24.0129V14.737C28.5028 14.453 30.5858 12.1911 30.5858 9.45184C30.5858 6.52111 28.2014 4.13672 25.2706 4.13672ZM3.67736 9.28762H19.958C19.9564 9.34217 19.9556 9.39689 19.9556 9.45184C19.9556 10.4674 20.2418 11.4172 20.7379 12.2251L14.0662 18.5318H13.325L3.55374 9.29522C3.59445 9.29018 3.63574 9.28762 3.67736 9.28762ZM2.68754 10.2774C2.68754 10.2032 2.69564 10.1303 2.71141 10.0597L10.655 17.5686L2.73154 24.3059C2.7028 24.2124 2.68754 24.114 2.68754 24.0129V10.2774ZM23.7137 25.0027H3.67736C3.67271 25.0027 3.66818 25.0021 3.66358 25.002L11.4841 18.3522L12.7099 19.5109C12.8152 19.6105 12.9546 19.6659 13.0994 19.6659H14.2918C14.4367 19.6659 14.576 19.6104 14.6813 19.5109L15.907 18.3522L23.7282 25.0026C23.7234 25.0026 23.7186 25.0027 23.7137 25.0027ZM24.7035 24.0129C24.7035 24.1141 24.6886 24.2126 24.6599 24.3061L16.7361 17.5685L21.4345 13.1272C22.2795 14.0088 23.4245 14.6007 24.7035 14.737V24.0129ZM25.2706 13.633C22.9652 13.633 21.0896 11.7573 21.0896 9.45184C21.0896 7.14638 22.9652 5.2708 25.2706 5.2708C27.5761 5.2708 29.4517 7.14638 29.4517 9.45184C29.4517 11.7573 27.5761 13.633 25.2706 13.633Z" fill="#FF9900"/>
<path d="M25.461 7.63574H24.8548C24.5417 7.63574 24.2878 7.88966 24.2878 8.20277C24.2878 8.51589 24.5417 8.76981 24.8548 8.76981H24.8939V11.0374C24.8939 11.3506 25.1478 11.6045 25.461 11.6045C25.7742 11.6045 26.028 11.3506 26.028 11.0374V8.20277C26.028 7.8896 25.7742 7.63574 25.461 7.63574Z" fill="#FF9900"/>
</g>
</svg>
