<svg width="24" height="25" viewBox="0 0 24 25" fill="none" xmlns="http://www.w3.org/2000/svg">
<path d="M7.20023 18.377C6.91223 18.377 6.72023 18.281 6.52823 18.089C6.14423 17.705 6.14423 17.129 6.52823 16.745L16.1282 7.14493C16.5122 6.76093 17.0882 6.76093 17.4722 7.14493C17.8562 7.52893 17.8562 8.10493 17.4722 8.48893L7.87223 18.089C7.68023 18.281 7.48823 18.377 7.20023 18.377Z" fill="#222222"/>
<path d="M16.8002 17.417C16.2242 17.417 15.8402 17.033 15.8402 16.457V8.77693H8.1602C7.5842 8.77693 7.2002 8.39293 7.2002 7.81693C7.2002 7.24093 7.5842 6.85693 8.1602 6.85693H16.8002C17.3762 6.85693 17.7602 7.24093 17.7602 7.81693V16.457C17.7602 17.033 17.3762 17.417 16.8002 17.417Z" fill="#222222"/>
</svg>
