<svg width="61" height="61" viewBox="0 0 61 61" fill="none" xmlns="http://www.w3.org/2000/svg">
<mask id="mask0_1_214" style="mask-type:luminance" maskUnits="userSpaceOnUse" x="0" y="0" width="61" height="60">
<path d="M60.0082 0.884521H0.991821V59.9009H60.0082V0.884521Z" fill="white"/>
</mask>
<g mask="url(#mask0_1_214)">
<path d="M26.363 14.3575C25.253 14.3575 24.3185 15.227 24.2546 16.3495C24.2546 16.3501 24.2544 16.3509 24.2543 16.3516L23.8542 23.3747C23.8309 23.7865 24.1455 24.1391 24.557 24.1627C24.974 24.1884 25.3213 23.8717 25.3449 23.4599L25.508 20.5975H31.3892L32.0357 31.9341C32.0584 32.3313 32.3874 32.638 32.7804 32.638C32.7948 32.638 32.809 32.6377 32.8235 32.6369C33.235 32.6133 33.5496 32.2607 33.5263 31.8489C32.5341 14.3917 32.7556 18.289 32.6454 16.3493C32.5831 15.2544 31.6746 14.3574 30.5371 14.3574L26.363 14.3575ZM25.5937 19.1046L25.7452 16.4364C25.7654 16.0927 26.0663 15.8519 26.3614 15.8509H30.5357C30.8649 15.8509 31.1356 16.1058 31.1519 16.4368L31.304 19.1046H25.5937Z" fill="#FF9900"/>
<path d="M48.8096 46.9423H51.6757C52.5551 46.9423 53.2705 46.227 53.2705 45.3478V42.4818C53.2705 41.6022 52.5551 40.887 51.6757 40.887H48.8096C47.9304 40.887 47.2151 41.6022 47.2151 42.4818V45.3478C47.2151 46.227 47.9304 46.9423 48.8096 46.9423ZM48.7082 42.4817C48.7082 42.4256 48.7537 42.3799 48.8096 42.3799H51.6757C51.7317 42.3799 51.7775 42.4256 51.7775 42.4817V45.3477C51.7775 45.4038 51.7317 45.4491 51.6757 45.4491H48.8096C48.7536 45.4491 48.7082 45.4037 48.7082 45.3477V42.4817Z" fill="#222222"/>
<path d="M39.5292 46.9423H42.3953C43.2748 46.9423 43.9901 46.227 43.9901 45.3478V42.4818C43.9901 41.6022 43.2748 40.887 42.3953 40.887H39.5292C38.6501 40.887 37.9348 41.6022 37.9348 42.4818V45.3478C37.9348 46.227 38.6501 46.9423 39.5292 46.9423ZM39.4278 42.4817C39.4278 42.4256 39.4733 42.3799 39.5292 42.3799H42.3953C42.4514 42.3799 42.4971 42.4256 42.4971 42.4817V45.3477C42.4971 45.4038 42.4514 45.4491 42.3953 45.4491H39.5292C39.4732 45.4491 39.4278 45.4037 39.4278 45.3477V42.4817Z" fill="#222222"/>
<path d="M33.1146 40.887H30.2487C29.3692 40.887 28.6538 41.6022 28.6538 42.4818V45.3478C28.6538 46.227 29.3692 46.9423 30.2487 46.9423H33.1146C33.994 46.9423 34.7094 46.227 34.7094 45.3478V42.4818C34.7094 41.6021 33.994 40.887 33.1146 40.887ZM33.2164 45.3478C33.2164 45.4039 33.1705 45.4493 33.1146 45.4493H30.2487C30.1927 45.4493 30.1469 45.4038 30.1469 45.3478V42.4818C30.1469 42.4257 30.1927 42.38 30.2487 42.38H33.1146C33.1705 42.38 33.2164 42.4257 33.2164 42.4818V45.3478Z" fill="#222222"/>
<path d="M27.7871 28.2037C27.7871 26.7987 26.6441 25.6558 25.2392 25.6558H8.95495C7.54997 25.6558 6.40699 26.7988 6.40699 28.2037V55.0421H5.02702C3.87839 55.0421 2.94415 55.9763 2.94415 57.1248C2.94415 58.2733 3.87851 59.2077 5.02702 59.2077L56.4481 59.2073C57.5963 59.2073 58.5307 58.273 58.5307 57.1247C58.5307 55.9763 57.5964 55.042 56.4481 55.042H55.6295V34.4749C55.6295 34.097 55.4468 33.7391 55.1408 33.5172C54.8348 33.2956 54.4369 33.2345 54.079 33.3514L46.3488 35.885V34.4749C46.3488 34.097 46.1661 33.7391 45.8603 33.5176C45.5538 33.2957 45.1567 33.2336 44.7983 33.3514L37.068 35.8848V34.4749C37.068 34.097 36.8854 33.7391 36.5796 33.5176C36.2731 33.2957 35.876 33.2336 35.5175 33.3514L27.7871 35.8851V28.2037ZM7.89992 28.2037C7.89992 27.622 8.3732 27.1487 8.95495 27.1487H25.2392C25.821 27.1487 26.2942 27.622 26.2942 28.2037V55.0421H21.8549V50.5529C21.8549 49.2611 20.804 48.2103 19.5122 48.2103H14.6821C13.3903 48.2103 12.3394 49.2611 12.3394 50.5529V55.0421H7.89992V28.2037ZM20.3618 55.0421H13.8323V50.5529C13.8323 50.0844 14.2134 49.7032 14.6821 49.7032H19.5122C19.9808 49.7032 20.362 50.0843 20.362 50.5529L20.3618 55.0421ZM57.0377 57.1248C57.0377 57.45 56.7732 57.7144 56.4482 57.7144L5.02714 57.7146C4.70197 57.7146 4.4372 57.45 4.4372 57.1248C4.4372 56.7996 4.70197 56.5352 5.02714 56.5352H56.4482C56.7732 56.5352 57.0377 56.7996 57.0377 57.1248ZM54.1366 34.9038V55.0421H46.3488V37.4559L54.1366 34.9038ZM44.8557 34.9038V55.0421H37.0679V37.4559L44.8557 34.9038ZM27.7874 37.4559L35.5749 34.9038V55.0421H27.7874V37.4559Z" fill="#FF9900"/>
<path d="M11.859 33.0809H22.3357C23.5602 33.0809 24.5562 32.0848 24.5562 30.8604C24.5562 29.636 23.56 28.6399 22.3357 28.6399H11.859C10.6349 28.6399 9.63873 29.6361 9.63873 30.8604C9.63873 32.0848 10.6347 33.0809 11.859 33.0809ZM11.859 30.1328H22.3357C22.7369 30.1328 23.0633 30.4592 23.0633 30.8604C23.0633 31.2617 22.7369 31.588 22.3357 31.588H11.859C11.4581 31.588 11.1317 31.2617 11.1317 30.8604C11.1317 30.4592 11.458 30.1328 11.859 30.1328Z" fill="#FF9900"/>
<path d="M11.3727 40.095H14.3054C15.2629 40.095 16.0421 39.3158 16.0421 38.3578V36.3147C16.0421 35.3568 15.2629 34.5776 14.3054 34.5776H11.3727C10.4151 34.5776 9.63586 35.3568 9.63586 36.3147V38.3578C9.63597 39.3158 10.4151 40.095 11.3727 40.095ZM11.1289 36.3146C11.1289 36.1798 11.2383 36.0706 11.3727 36.0706H14.3054C14.4397 36.0706 14.5491 36.1799 14.5491 36.3146V38.3577C14.5491 38.4925 14.4397 38.6018 14.3054 38.6018H11.3727C11.2383 38.6018 11.1289 38.4924 11.1289 38.3577V36.3146Z" fill="#FF9900"/>
<path d="M22.8189 34.5774H19.8865C18.9289 34.5774 18.1497 35.3566 18.1497 36.3144V38.3577C18.1497 39.3155 18.9289 40.0947 19.8865 40.0947H22.8189C23.7768 40.0947 24.556 39.3155 24.556 38.3577V36.3144C24.556 35.3566 23.7768 34.5774 22.8189 34.5774ZM23.063 38.3578C23.063 38.4925 22.9536 38.6018 22.8189 38.6018H19.8865C19.7522 38.6018 19.6428 38.4924 19.6428 38.3578V36.3145C19.6428 36.1799 19.7522 36.0706 19.8865 36.0706H22.8189C22.9537 36.0706 23.063 36.18 23.063 36.3145V38.3578Z" fill="#FF9900"/>
<path d="M14.3054 47.1257C15.2631 47.1257 16.0422 46.3465 16.0422 45.3887V43.3454C16.0422 42.3876 15.2631 41.6084 14.3054 41.6084H11.3727C10.4151 41.6084 9.63586 42.3876 9.63586 43.3454V45.3887C9.63586 46.3465 10.4151 47.1257 11.3727 47.1257H14.3054ZM11.1289 45.3887V43.3454C11.1289 43.2107 11.2383 43.1014 11.3727 43.1014H14.3054C14.4397 43.1014 14.5491 43.2108 14.5491 43.3454V45.3887C14.5491 45.5234 14.4397 45.6327 14.3054 45.6327H11.3727C11.2383 45.6327 11.1289 45.5234 11.1289 45.3887Z" fill="#FF9900"/>
<path d="M22.8189 41.6082H19.8865C18.9289 41.6082 18.1497 42.3873 18.1497 43.3452V45.3884C18.1497 46.3463 18.9289 47.1255 19.8865 47.1255H22.8189C23.7768 47.1255 24.556 46.3463 24.556 45.3884V43.3452C24.556 42.3873 23.7768 41.6082 22.8189 41.6082ZM23.063 45.3885C23.063 45.5233 22.9536 45.6325 22.8189 45.6325H19.8865C19.7522 45.6325 19.6428 45.5231 19.6428 45.3885V43.3453C19.6428 43.2105 19.7522 43.1013 19.8865 43.1013H22.8189C22.9537 43.1013 23.063 43.2106 23.063 43.3453V45.3885Z" fill="#FF9900"/>
<path d="M15.7709 10.118C15.7709 10.3472 15.8071 10.5679 15.8735 10.7753H14.1102C12.9212 10.7753 11.96 11.7356 11.96 12.9257C11.96 14.1112 12.9246 15.0759 14.1102 15.0759H21.8312C23.014 15.0759 23.9762 14.1112 23.9762 12.9257C23.9762 12.6965 23.9404 12.4758 23.8739 12.2684H25.6369C26.8226 12.2684 27.7872 11.3037 27.7872 10.118C27.7872 8.93244 26.8226 7.96777 25.6369 7.96777H17.921C16.7324 7.96777 15.7709 8.92818 15.7709 10.118ZM26.2944 10.118C26.2944 10.4806 25.9995 10.7753 25.6371 10.7753H21.8313C21.419 10.7753 21.0849 11.1095 21.0849 11.5218C21.0849 11.9341 21.419 12.2682 21.8313 12.2682C22.1908 12.2682 22.4834 12.5631 22.4834 12.9255C22.4834 13.288 22.1909 13.5827 21.8313 13.5827H14.1103C13.7479 13.5827 13.4531 13.2879 13.4531 12.9255C13.4531 12.5658 13.7407 12.2682 14.1103 12.2682H17.9213C18.3336 12.2682 18.6678 11.9341 18.6678 11.5218C18.6678 11.1095 18.3336 10.7753 17.9213 10.7753C17.5587 10.7753 17.2641 10.4805 17.2641 10.118C17.2641 9.7529 17.5575 9.46082 17.9213 9.46082H25.6371C25.9995 9.46082 26.2944 9.75556 26.2944 10.118Z" fill="#FF9900"/>
<path d="M4.61899 8.6859H12.34C13.5227 8.6859 14.485 7.72123 14.485 6.5356C14.485 6.30645 14.4492 6.08572 14.3827 5.87836H16.1456C17.3316 5.87836 18.2961 4.91369 18.2961 3.72806C18.2961 2.54244 17.3317 1.57788 16.1458 1.57788H8.43004C7.24107 1.57788 6.27975 2.53828 6.27975 3.72817C6.27975 3.95732 6.31594 4.17806 6.38233 4.38543H4.61899C3.43417 4.38543 2.46869 5.34156 2.46869 6.53572C2.46881 7.72135 3.43336 8.6859 4.61899 8.6859ZM4.61899 5.87836H8.42992C8.84223 5.87836 9.17639 5.5442 9.17639 5.13189C9.17639 4.71958 8.84223 4.38543 8.42992 4.38543C8.06742 4.38543 7.77268 4.09057 7.77268 3.72817C7.77268 3.36301 8.06615 3.07093 8.42992 3.07093H16.1458C16.5082 3.07093 16.8033 3.36578 16.8033 3.72817C16.8033 4.09057 16.5082 4.38543 16.1458 4.38543H12.3401C11.9278 4.38543 11.5936 4.71958 11.5936 5.13189C11.5936 5.5442 11.9278 5.87836 12.3401 5.87836C12.6996 5.87836 12.9921 6.17321 12.9921 6.5356C12.9921 6.898 12.6997 7.19286 12.3401 7.19286H4.61899C4.25647 7.19286 3.96174 6.898 3.96174 6.5356C3.96174 6.18059 4.24414 5.87836 4.61899 5.87836Z" fill="#FF9900"/>
</g>
</svg>
