<svg width="21" height="20" viewBox="0 0 21 20" fill="none" xmlns="http://www.w3.org/2000/svg">
<path d="M13.3084 10.2095L9.93549 13.5825L8.19773 11.8447C7.96522 11.6122 7.58854 11.6122 7.35603 11.8447C7.12351 12.0772 7.12351 12.4539 7.35603 12.6864L9.51464 14.845C9.6309 14.9612 9.7832 15.0194 9.93549 15.0194C10.0878 15.0194 10.2401 14.9612 10.3563 14.845L14.1501 11.0512C14.3827 10.8188 14.3827 10.4421 14.1501 10.2095C13.9176 9.97704 13.541 9.97704 13.3084 10.2095Z" fill="#FF9900"/>
<path d="M16.1102 2.9889H15.2173V2.4175C15.2173 2.08878 14.9509 1.82227 14.6221 1.82227C14.2934 1.82227 14.0269 2.08878 14.0269 2.4175V2.9889H7.47926V2.4175C7.47926 2.08878 7.21274 1.82227 6.88402 1.82227C6.5553 1.82227 6.28879 2.08878 6.28879 2.4175V2.9889H5.39593C3.75496 2.9889 2.41974 4.32412 2.41974 5.96509V15.5128C2.41974 17.1537 3.75496 18.4889 5.39593 18.4889H16.1102C17.7511 18.4889 19.0864 17.1537 19.0864 15.5128V5.96509C19.0864 4.32412 17.7511 2.9889 16.1102 2.9889ZM3.61021 5.96509C3.61021 4.9804 4.41122 4.17938 5.39593 4.17938H6.28879V4.75049C6.28879 5.07922 6.5553 5.34573 6.88402 5.34573C7.21274 5.34573 7.47926 5.07922 7.47926 4.75049V4.17938H14.0269V4.75049C14.0269 5.07922 14.2934 5.34573 14.6221 5.34573C14.9509 5.34573 15.2173 5.07922 15.2173 4.75049V4.17938H16.1102C17.095 4.17938 17.8959 4.9804 17.8959 5.96509V6.56615H3.61021V5.96509ZM16.1102 17.2985H5.39593C4.41122 17.2985 3.61021 16.4974 3.61021 15.5128V7.75663H17.8959V15.5128C17.8959 16.4974 17.095 17.2985 16.1102 17.2985Z" fill="#FF9900"/>
</svg>
