<svg width="60" height="61" viewBox="0 0 60 61" fill="none" xmlns="http://www.w3.org/2000/svg">
<path d="M13.9522 27.3077C14.3595 27.347 14.7256 27.0491 14.7663 26.6397L14.8729 25.5629H22.5717L22.6776 26.6397C22.7175 27.0429 23.0742 27.347 23.4917 27.3077C23.9009 27.2672 24.1999 26.9029 24.1597 26.4936C22.8652 13.2943 24.4903 29.8556 23.3731 18.4928C23.257 17.3398 22.2958 16.4705 21.1373 16.4705H16.3064C15.1424 16.4705 14.1835 17.3421 14.0765 18.4925C13.8757 20.5188 13.4718 24.5998 13.2842 26.4936C13.244 26.9028 13.543 27.2672 13.9522 27.3077ZM15.0203 24.0738L15.2703 21.5486H22.1771L22.4254 24.0738H15.0203ZM16.3063 17.9596H21.1372C21.5281 17.9596 21.8521 18.2528 21.8911 18.6401L22.0306 20.0594H15.4177L15.5587 18.636C15.5937 18.2569 15.9224 17.9596 16.3063 17.9596Z" fill="#FF9900"/>
<path d="M56.5621 51.9815H56.024V39.242C56.024 37.9118 54.9392 36.8295 53.6056 36.8295H47.3532C47.3463 36.76 45.5371 18.4341 45.5435 18.4983C45.4357 17.3421 44.4768 16.4705 43.3129 16.4705H38.4823C37.3235 16.4705 36.3624 17.3398 36.246 18.4942C36.177 19.1964 35.454 26.5535 35.4599 26.4936C35.4198 26.9028 35.7188 27.2672 36.128 27.3077C36.5334 27.347 36.9017 27.0491 36.9421 26.6397L37.0479 25.5629H44.7446L45.8568 36.8296H43.7299C43.3186 36.8296 42.9854 37.163 42.9854 37.5741C42.9854 37.9853 43.3187 38.3186 43.7299 38.3186H53.6059C54.1183 38.3186 54.5351 38.7328 54.5351 39.242V51.9816H52.2971V44.8836C52.2971 43.7968 51.4129 42.9126 50.326 42.9126H45.7064C44.6195 42.9126 43.7354 43.7968 43.7354 44.8836V51.9816H41.497V30.5725C41.497 29.5962 40.7024 28.8015 39.726 28.8015H5.74699C4.7707 28.8015 3.97604 29.5961 3.97604 30.5725V51.9815H3.43833C2.23749 51.9815 1.26025 52.9587 1.26025 54.1596C1.26025 55.3604 2.23749 56.3377 3.43833 56.3377H56.5621C57.7629 56.3377 58.7401 55.3604 58.7401 54.1596C58.7401 52.9587 57.763 51.9815 56.5621 51.9815ZM38.4824 17.9594H43.313C43.6969 17.9594 44.0256 18.2568 44.0614 18.6418L44.2012 20.0593H37.5886L37.728 18.6414C37.7672 18.2528 38.0914 17.9594 38.4824 17.9594ZM37.1942 24.0736L37.4423 21.5485H44.3482L44.5975 24.0736H37.1942ZM45.2245 44.8835C45.2245 44.6177 45.4406 44.4016 45.7064 44.4016H50.3258C50.5916 44.4016 50.8077 44.6177 50.8077 44.8835V51.9815H45.2245V44.8835ZM5.46517 30.5725C5.46517 30.4172 5.59173 30.2907 5.74699 30.2907H39.726C39.8813 30.2907 40.0078 30.4172 40.0078 30.5725V51.9815H5.46517V30.5725ZM56.5621 54.8486H3.43833C3.05852 54.8486 2.74927 54.5395 2.74927 54.1596C2.74927 53.7798 3.05841 53.4705 3.43833 53.4705H56.5621C56.9419 53.4705 57.2511 53.7796 57.2511 54.1596C57.2511 54.5395 56.9419 54.8486 56.5621 54.8486Z" fill="#FF9900"/>
<path d="M12.4619 33.7532H8.98987C7.52552 33.7532 6.33389 34.9448 6.33389 36.4092C6.33389 37.8739 7.52552 39.0654 8.98987 39.0654H12.4619C13.9263 39.0654 15.1178 37.8739 15.1178 36.4092C15.1178 34.9448 13.9264 33.7532 12.4619 33.7532ZM12.4619 37.5764H8.98987C8.34656 37.5764 7.82302 37.0528 7.82302 36.4092C7.82302 35.7658 8.34656 35.2424 8.98987 35.2424H12.4619C13.1052 35.2424 13.6288 35.7658 13.6288 36.4092C13.6288 37.0529 13.1053 37.5764 12.4619 37.5764Z" fill="#FF9900"/>
<path d="M24.4724 33.7532H21.0006C19.5363 33.7532 18.3447 34.9448 18.3447 36.4092C18.3447 37.8739 19.5363 39.0654 21.0006 39.0654H24.4724C25.9368 39.0654 27.1284 37.8739 27.1284 36.4092C27.1286 34.9448 25.9369 33.7532 24.4724 33.7532ZM24.4724 37.5764H21.0006C20.3573 37.5764 19.8337 37.0528 19.8337 36.4092C19.8337 35.7658 20.3573 35.2424 21.0006 35.2424H24.4724C25.1157 35.2424 25.6393 35.7658 25.6393 36.4092C25.6394 37.0529 25.1159 37.5764 24.4724 37.5764Z" fill="#FF9900"/>
<path d="M36.4834 33.7532H33.0114C31.547 33.7532 30.3554 34.9448 30.3554 36.4092C30.3554 37.8739 31.547 39.0654 33.0114 39.0654H36.4834C37.9477 39.0654 39.1394 37.8739 39.1394 36.4092C39.1394 34.9448 37.9479 33.7532 36.4834 33.7532ZM36.4834 37.5764H33.0114C32.368 37.5764 31.8446 37.0528 31.8446 36.4092C31.8446 35.7658 32.368 35.2424 33.0114 35.2424H36.4834C37.1267 35.2424 37.6503 35.7658 37.6503 36.4092C37.6504 37.0529 37.1268 37.5764 36.4834 37.5764Z" fill="#FF9900"/>
<path d="M17.2252 12.2779C17.6365 12.2779 17.9697 11.9445 17.9697 11.5334V11.1509C17.9697 9.7697 19.0932 8.64619 20.4745 8.64619H24.9985C27.2008 8.64619 28.9924 6.85426 28.9924 4.65198C28.9924 4.24071 28.659 3.90747 28.2479 3.90747C27.8366 3.90747 27.5034 4.24082 27.5034 4.65198C27.5034 6.03322 26.3799 7.15706 24.9986 7.15706H20.4745C18.2723 7.15706 16.4807 8.94865 16.4807 11.1509V11.5334C16.4806 11.9446 16.814 12.2779 17.2252 12.2779Z" fill="#222222"/>
<path d="M27.205 8.68164C26.7937 8.68164 26.4605 9.01499 26.4605 9.42615C26.4605 10.2184 25.816 10.8632 25.0237 10.8632H21.9867C20.3734 10.8632 19.0607 12.1757 19.0607 13.7891V14.0456C19.0607 14.4568 19.3941 14.7901 19.8052 14.7901C20.2166 14.7901 20.5497 14.4567 20.5497 14.0456V13.7891C20.5497 12.9969 21.1942 12.3523 21.9866 12.3523H25.0235C26.6369 12.3523 27.9495 11.0398 27.9495 9.42615C27.9496 9.01499 27.6162 8.68164 27.205 8.68164Z" fill="#222222"/>
<path d="M39.5258 12.2779C39.9372 12.2779 40.2704 11.9445 40.2704 11.5334V11.1509C40.2704 9.7697 41.3942 8.64619 42.7755 8.64619H47.2992C49.5015 8.64619 51.2934 6.85426 51.2934 4.65198C51.2934 4.24071 50.9601 3.90747 50.5489 3.90747C50.1377 3.90747 49.8044 4.24082 49.8044 4.65198C49.8044 6.03322 48.6806 7.15706 47.2994 7.15706H42.7756C40.5733 7.15706 38.7813 8.94865 38.7813 11.1509V11.5334C38.7812 11.9446 39.1146 12.2779 39.5258 12.2779Z" fill="#222222"/>
<path d="M49.5057 8.68164C49.0945 8.68164 48.7612 9.01499 48.7612 9.42615C48.7612 10.2184 48.1168 10.8632 47.3244 10.8632H44.2874C42.6741 10.8632 41.3615 12.1757 41.3615 13.7891V14.0456C41.3615 14.4568 41.6948 14.7901 42.1059 14.7901C42.5171 14.7901 42.8504 14.4567 42.8504 14.0456V13.7891C42.8504 12.9969 43.4949 12.3523 44.2873 12.3523H47.3243C48.9376 12.3523 50.2502 11.0398 50.2502 9.42615C50.2503 9.01499 49.917 8.68164 49.5057 8.68164Z" fill="#222222"/>
</svg>
