<svg width="41" height="41" viewBox="0 0 41 41" fill="none" xmlns="http://www.w3.org/2000/svg">
<path fill-rule="evenodd" clip-rule="evenodd" d="M9.93205 4.28053C9.9412 4.28028 9.95035 4.28015 9.9595 4.28015H30.7595V5.28016L30.787 4.28053C31.4234 4.298 32.0467 4.46499 32.6066 4.768C33.1635 5.06939 33.6421 5.49693 34.0041 6.01637L39.2044 13.2168C39.7193 13.9443 39.9763 14.8229 39.9349 15.7132C39.8935 16.6035 39.556 17.4545 38.9758 18.1311L38.9719 18.1357L23.3885 36.0879C23.0307 36.5418 22.5753 36.9096 22.056 37.1639C21.5279 37.4225 20.9476 37.557 20.3595 37.557C19.7715 37.557 19.1912 37.4225 18.6631 37.1639C18.1438 36.9096 17.6884 36.5418 17.3306 36.0879L1.7432 18.1311C1.16306 17.4545 0.825516 16.6035 0.784107 15.7132C0.742698 14.8229 0.99981 13.9443 1.51464 13.2168L1.52021 13.2089L6.71499 6.01623C7.077 5.49685 7.55555 5.06936 8.11242 4.768C8.67231 4.46499 9.29566 4.298 9.93205 4.28053ZM30.7445 6.28016H9.97458C9.6562 6.29082 9.34458 6.37527 9.06432 6.52695C8.78042 6.68058 8.53667 6.89887 8.35277 7.16416L8.3416 7.17993L3.14473 14.3756C2.88897 14.7387 2.76131 15.1766 2.78194 15.6203C2.80261 16.0645 2.97072 16.4892 3.25969 16.8271L3.2615 16.8292L18.8576 34.7961C18.8696 34.8099 18.8812 34.824 18.8924 34.8385C19.066 35.0622 19.2884 35.2432 19.5427 35.3677C19.797 35.4922 20.0764 35.557 20.3595 35.557C20.6427 35.557 20.9221 35.4922 21.1764 35.3677C21.4306 35.2432 21.6531 35.0622 21.8267 34.8385C21.8379 34.824 21.8495 34.8099 21.8615 34.7961L37.4575 16.8292L37.4595 16.827C37.7484 16.489 37.9164 16.0645 37.9371 15.6203C37.9577 15.1767 37.8301 14.7388 37.5744 14.3758L37.5718 14.3721L32.3774 7.17993L32.3663 7.16416C32.1824 6.89887 31.9386 6.68058 31.6547 6.52695C31.3745 6.37527 31.0628 6.29082 30.7445 6.28016Z" fill="#FF9900"/>
<path fill-rule="evenodd" clip-rule="evenodd" d="M19.4166 4.41142C19.8806 4.71094 20.014 5.3299 19.7145 5.79391L13.0274 16.1535L21.284 36.0976C21.4952 36.6079 21.2528 37.1929 20.7425 37.4041C20.2322 37.6154 19.6473 37.3729 19.4361 36.8627L10.9789 16.4341C10.8533 16.1307 10.8847 15.7851 11.0627 15.5093L18.0341 4.70926C18.3337 4.24524 18.9526 4.1119 19.4166 4.41142Z" fill="#FF9900"/>
<path fill-rule="evenodd" clip-rule="evenodd" d="M21.3907 4.41041C21.8553 4.11176 22.4741 4.24626 22.7728 4.71083L29.7155 15.5108C29.8932 15.7871 29.9238 16.1331 29.7974 16.4363L21.2831 36.8649C21.0706 37.3746 20.4851 37.6157 19.9754 37.4032C19.4656 37.1907 19.2246 36.6052 19.437 36.0954L27.7495 16.1511L21.0903 5.79235C20.7917 5.32778 20.9262 4.70906 21.3907 4.41041Z" fill="#FF9900"/>
<path fill-rule="evenodd" clip-rule="evenodd" d="M0.846191 16.0516C0.846191 15.4993 1.29391 15.0516 1.84619 15.0516H38.8748C39.4271 15.0516 39.8748 15.4993 39.8748 16.0516C39.8748 16.6039 39.4271 17.0516 38.8748 17.0516H1.84619C1.29391 17.0516 0.846191 16.6039 0.846191 16.0516Z" fill="#222222"/>
</svg>
