<svg width="41" height="41" viewBox="0 0 41 41" fill="none" xmlns="http://www.w3.org/2000/svg">
<path fill-rule="evenodd" clip-rule="evenodd" d="M9.36691 3.30859C5.57981 3.30859 2.50977 6.37864 2.50977 10.1657C2.50977 13.9528 5.57981 17.0229 9.36691 17.0229C13.154 17.0229 16.2241 13.9528 16.2241 10.1657C16.2241 6.37864 13.154 3.30859 9.36691 3.30859ZM0.509766 10.1657C0.509766 5.27408 4.47525 1.30859 9.36691 1.30859C14.2586 1.30859 18.2241 5.27408 18.2241 10.1657C18.2241 15.0574 14.2586 19.0229 9.36691 19.0229C4.47525 19.0229 0.509766 15.0574 0.509766 10.1657Z" fill="#FF9900"/>
<path fill-rule="evenodd" clip-rule="evenodd" d="M30.7966 3.30859C27.0095 3.30859 23.9395 6.37864 23.9395 10.1657C23.9395 13.9528 27.0095 17.0229 30.7966 17.0229C34.5837 17.0229 37.6538 13.9528 37.6538 10.1657C37.6538 6.37864 34.5837 3.30859 30.7966 3.30859ZM21.9395 10.1657C21.9395 5.27408 25.905 1.30859 30.7966 1.30859C35.6883 1.30859 39.6538 5.27408 39.6538 10.1657C39.6538 15.0574 35.6883 19.0229 30.7966 19.0229C25.905 19.0229 21.9395 15.0574 21.9395 10.1657Z" fill="#222222"/>
<path fill-rule="evenodd" clip-rule="evenodd" d="M9.36691 24.7372C5.57981 24.7372 2.50977 27.8072 2.50977 31.5943C2.50977 35.3814 5.57981 38.4515 9.36691 38.4515C13.154 38.4515 16.2241 35.3814 16.2241 31.5943C16.2241 27.8072 13.154 24.7372 9.36691 24.7372ZM0.509766 31.5943C0.509766 26.7027 4.47525 22.7372 9.36691 22.7372C14.2586 22.7372 18.2241 26.7027 18.2241 31.5943C18.2241 36.486 14.2586 40.4515 9.36691 40.4515C4.47525 40.4515 0.509766 36.486 0.509766 31.5943Z" fill="#222222"/>
<path fill-rule="evenodd" clip-rule="evenodd" d="M30.7966 24.7372C27.0095 24.7372 23.9395 27.8072 23.9395 31.5943C23.9395 35.3814 27.0095 38.4515 30.7966 38.4515C34.5837 38.4515 37.6538 35.3814 37.6538 31.5943C37.6538 27.8072 34.5837 24.7372 30.7966 24.7372ZM21.9395 31.5943C21.9395 26.7027 25.905 22.7372 30.7966 22.7372C35.6883 22.7372 39.6538 26.7027 39.6538 31.5943C39.6538 36.486 35.6883 40.4515 30.7966 40.4515C25.905 40.4515 21.9395 36.486 21.9395 31.5943Z" fill="#FF9900"/>
</svg>
