<svg width="25" height="25" viewBox="0 0 25 25" fill="none" xmlns="http://www.w3.org/2000/svg">
<path d="M24.488 11.2239C24.4479 10.9442 24.2442 10.7157 23.971 10.6439L22.7759 10.3294C22.53 9.36899 22.1502 8.45366 21.643 7.59871L22.2666 6.52949C22.4088 6.28546 22.3913 5.98002 22.222 5.7539C21.8811 5.29837 21.502 4.86116 21.0953 4.45429C20.6895 4.04835 20.2522 3.66923 19.7956 3.32732C19.5695 3.15801 19.264 3.14043 19.0199 3.28288L17.9508 3.90651C17.0959 3.39923 16.1806 3.01949 15.2202 2.77354L14.9058 1.57855C14.8338 1.30532 14.6054 1.10165 14.3257 1.06148C13.1976 0.89943 12.0223 0.89943 10.8942 1.06148C10.6145 1.1016 10.3861 1.30527 10.3142 1.57855L9.99971 2.77354C9.03938 3.01944 8.12415 3.39918 7.2691 3.90651L6.20007 3.28288C5.95604 3.14052 5.65046 3.1581 5.42433 3.32732C4.96782 3.66918 4.53052 4.0483 4.12463 4.45429C3.71794 4.86112 3.33887 5.29832 2.9979 5.75385C2.82863 5.97998 2.8111 6.28541 2.95337 6.52944L3.5769 7.59866C3.06966 8.45371 2.68993 9.36899 2.44402 10.3293L1.24899 10.6438C0.975704 10.7157 0.772032 10.9442 0.731954 11.2239C0.651048 11.7882 0.609985 12.3654 0.609985 12.9396C0.609985 13.5138 0.651048 14.091 0.732001 14.6553C0.772079 14.935 0.975751 15.1635 1.24903 15.2354L2.44407 15.5499C2.69002 16.5103 3.06976 17.4256 3.57694 18.2805L2.95341 19.3498C2.81115 19.5938 2.82868 19.8992 2.99794 20.1254C3.33891 20.5809 3.71799 21.0181 4.12472 21.425C4.53052 21.8309 4.96782 22.21 5.42438 22.5519C5.65051 22.7212 5.95599 22.7388 6.20011 22.5964L7.26915 21.9727C8.1241 22.48 9.03942 22.8598 9.99975 23.1057L10.3142 24.3007C10.3861 24.5739 10.6146 24.7776 10.8943 24.8177C11.4583 24.8988 12.0356 24.9399 12.61 24.9399C13.1844 24.9399 13.7617 24.8988 14.3258 24.8178C14.6055 24.7777 14.8339 24.574 14.9058 24.3007L15.2203 23.1058C16.1806 22.8599 17.0958 22.4801 17.9509 21.9728L19.0199 22.5965C19.264 22.7389 19.5696 22.7213 19.7957 22.552C20.2522 22.2102 20.6895 21.831 21.0954 21.4251C21.502 21.0182 21.8811 20.581 22.2221 20.1255C22.3914 19.8994 22.4089 19.5939 22.2666 19.3499L21.6431 18.2807C22.1503 17.4256 22.5301 16.5104 22.776 15.55L23.971 15.2355C24.2443 15.1637 24.448 14.9351 24.488 14.6554C24.569 14.0911 24.61 13.5139 24.61 12.9397C24.61 12.3656 24.5689 11.7882 24.488 11.2239ZM12.61 20.4211C8.4848 20.4211 5.12874 17.0651 5.12874 12.9399C5.12874 8.81474 8.4848 5.45868 12.61 5.45868C16.7352 5.45868 20.0913 8.81474 20.0913 12.9399C20.0913 17.0651 16.7352 20.4211 12.61 20.4211Z" fill="white"/>
<path d="M12.6108 6.86475C9.26099 6.86475 6.53577 9.58997 6.53577 12.9398C6.53577 16.2895 9.26099 19.0148 12.6108 19.0148C15.9606 19.0148 18.6858 16.2895 18.6858 12.9398C18.6858 9.58997 15.9606 6.86475 12.6108 6.86475ZM16.1205 11.9307L12.3548 15.6963C12.223 15.8282 12.0442 15.9023 11.8577 15.9023C11.6712 15.9023 11.4923 15.8282 11.3605 15.6963L9.47765 13.8135C9.20305 13.539 9.20305 13.0937 9.47765 12.8191C9.75219 12.5446 10.1974 12.5446 10.472 12.8191L11.8577 14.2048L15.1261 10.9363C15.4007 10.6618 15.8459 10.6618 16.1205 10.9363C16.395 11.2109 16.395 11.6561 16.1205 11.9307Z" fill="white"/>
</svg>
