<svg width="41" height="41" viewBox="0 0 41 41" fill="none" xmlns="http://www.w3.org/2000/svg">
<path fill-rule="evenodd" clip-rule="evenodd" d="M38.3717 29.4514C38.924 29.4514 39.3717 29.8991 39.3717 30.4514V36.1657C39.3717 37.1887 38.9654 38.1698 38.242 38.8931C37.5187 39.6165 36.5376 40.0228 35.5146 40.0228H29.8003C29.248 40.0228 28.8003 39.5751 28.8003 39.0228C28.8003 38.4706 29.248 38.0228 29.8003 38.0228H35.5146C36.0071 38.0228 36.4795 37.8272 36.8278 37.4789C37.1761 37.1306 37.3717 36.6582 37.3717 36.1657V30.4514C37.3717 29.8991 37.8195 29.4514 38.3717 29.4514Z" fill="white"/>
<path fill-rule="evenodd" clip-rule="evenodd" d="M28.8003 1.88C28.8003 1.32772 29.248 0.880005 29.8003 0.880005H35.5146C36.5376 0.880005 37.5187 1.28638 38.242 2.00973C38.9654 2.73309 39.3717 3.71416 39.3717 4.73714V10.4514C39.3717 11.0037 38.924 11.4514 38.3717 11.4514C37.8195 11.4514 37.3717 11.0037 37.3717 10.4514V4.73714C37.3717 4.24461 37.1761 3.77223 36.8278 3.42394C36.4795 3.07566 36.0071 2.88 35.5146 2.88H29.8003C29.248 2.88 28.8003 2.43228 28.8003 1.88Z" fill="white"/>
<path fill-rule="evenodd" clip-rule="evenodd" d="M4.08712 2.88C3.59458 2.88 3.12221 3.07566 2.77392 3.42394C2.42564 3.77223 2.22998 4.24461 2.22998 4.73714V10.4514C2.22998 11.0037 1.78226 11.4514 1.22998 11.4514C0.677695 11.4514 0.22998 11.0037 0.22998 10.4514V4.73714C0.22998 3.71416 0.636356 2.73309 1.35971 2.00973C2.08307 1.28638 3.06414 0.880005 4.08712 0.880005H9.80141C10.3537 0.880005 10.8014 1.32772 10.8014 1.88C10.8014 2.43228 10.3537 2.88 9.80141 2.88H4.08712Z" fill="white"/>
<path fill-rule="evenodd" clip-rule="evenodd" d="M1.22998 29.4514C1.78226 29.4514 2.22998 29.8991 2.22998 30.4514V36.1657C2.22998 36.6582 2.42564 37.1306 2.77392 37.4789C3.12221 37.8272 3.59458 38.0228 4.08712 38.0228H9.80141C10.3537 38.0228 10.8014 38.4706 10.8014 39.0228C10.8014 39.5751 10.3537 40.0228 9.80141 40.0228H4.08712C3.06414 40.0228 2.08307 39.6165 1.35971 38.8931C0.636357 38.1698 0.22998 37.1887 0.22998 36.1657V30.4514C0.22998 29.8991 0.677695 29.4514 1.22998 29.4514Z" fill="white"/>
<path fill-rule="evenodd" clip-rule="evenodd" d="M8.17504 20.4514C8.32177 20.6479 8.5071 20.8891 8.72804 21.1634C9.35332 21.9396 10.2575 22.9725 11.3731 24.0023C13.6391 26.094 16.6151 28.0229 19.802 28.0229C22.9889 28.0229 25.9648 26.094 28.2308 24.0023C29.3465 22.9725 30.2506 21.9396 30.8759 21.1634C31.0969 20.8891 31.2822 20.6479 31.4289 20.4514C31.2822 20.255 31.0969 20.0137 30.8759 19.7395C30.2506 18.9633 29.3465 17.9303 28.2308 16.9005C25.9648 14.8088 22.9889 12.88 19.802 12.88C16.6151 12.88 13.6391 14.8088 11.3731 16.9005C10.2575 17.9303 9.35332 18.9633 8.72804 19.7395C8.5071 20.0137 8.32177 20.255 8.17504 20.4514ZM32.6591 20.4514C33.4912 19.8967 33.491 19.8965 33.4908 19.8962L33.4889 19.8933L33.4845 19.8867L33.4694 19.8645C33.4566 19.8456 33.4383 19.8189 33.4146 19.7848C33.3672 19.7165 33.2982 19.6187 33.2088 19.4955C33.03 19.2493 32.7687 18.901 32.4334 18.4848C31.7641 17.6539 30.7932 16.5439 29.5874 15.4309C27.2106 13.2369 23.758 10.88 19.802 10.88C15.846 10.88 12.3934 13.2369 10.0165 15.4309C8.81076 16.5439 7.8399 17.6539 7.17053 18.4848C6.83523 18.901 6.57399 19.2493 6.39516 19.4955C6.3057 19.6187 6.23676 19.7165 6.18937 19.7848C6.16567 19.8189 6.14736 19.8456 6.13455 19.8645L6.11948 19.8867L6.11508 19.8933L6.11366 19.8954C6.11346 19.8957 6.11277 19.8967 6.94482 20.4514L6.11277 19.8967C5.88884 20.2326 5.88884 20.6702 6.11277 21.0061L6.94482 20.4514C6.11277 21.0061 6.11257 21.0058 6.11277 21.0061L6.11508 21.0096L6.11948 21.0161L6.13455 21.0384C6.14736 21.0572 6.16567 21.084 6.18937 21.1181C6.23676 21.1863 6.3057 21.2841 6.39516 21.4073C6.57399 21.6536 6.83523 22.0018 7.17053 22.418C7.8399 23.249 8.81076 24.3589 10.0165 25.4719C12.3934 27.666 15.846 30.0229 19.802 30.0229C23.758 30.0229 27.2106 27.666 29.5874 25.4719C30.7932 24.3589 31.7641 23.249 32.4334 22.418C32.7687 22.0018 33.03 21.6536 33.2088 21.4073C33.2982 21.2841 33.3672 21.1863 33.4146 21.1181C33.4383 21.084 33.4566 21.0572 33.4694 21.0384L33.4845 21.0161L33.4889 21.0096L33.4903 21.0075C33.4905 21.0072 33.4912 21.0061 32.6591 20.4514ZM32.6591 20.4514L33.4912 21.0061C33.7151 20.6702 33.7147 20.2321 33.4908 19.8962L32.6591 20.4514Z" fill="white"/>
<path fill-rule="evenodd" clip-rule="evenodd" d="M19.8011 20.0229C19.5645 20.0229 19.3726 20.2148 19.3726 20.4515C19.3726 20.6881 19.5645 20.88 19.8011 20.88C20.0378 20.88 20.2297 20.6881 20.2297 20.4515C20.2297 20.2148 20.0378 20.0229 19.8011 20.0229ZM17.3726 20.4515C17.3726 19.1102 18.4599 18.0229 19.8011 18.0229C21.1424 18.0229 22.2297 19.1102 22.2297 20.4515C22.2297 21.7927 21.1424 22.88 19.8011 22.88C18.4599 22.88 17.3726 21.7927 17.3726 20.4515Z" fill="white"/>
</svg>
