<svg width="30" height="31" viewBox="0 0 30 31" fill="none" xmlns="http://www.w3.org/2000/svg">
<path d="M8.97812 22.5911C8.60878 22.5911 8.36257 22.4679 8.11637 22.2217C7.62389 21.7293 7.62389 20.9907 8.11637 20.4982L20.4269 8.18767C20.9193 7.69526 21.658 7.69526 22.1504 8.18767C22.6428 8.68008 22.6428 9.41869 22.1504 9.91117L9.8398 22.2217C9.59359 22.4679 9.34739 22.5911 8.97812 22.5911Z" fill="white"/>
<path d="M21.2884 21.36C20.5498 21.36 20.0574 20.8676 20.0574 20.129V10.2805H10.2089C9.47025 10.2805 8.97784 9.78806 8.97784 9.04945C8.97784 8.31077 9.47025 7.81836 10.2089 7.81836H21.2884C22.0271 7.81836 22.5195 8.31077 22.5195 9.04945V20.129C22.5195 20.8676 22.0271 21.36 21.2884 21.36Z" fill="white"/>
</svg>
