<svg width="25" height="25" viewBox="0 0 25 25" fill="none" xmlns="http://www.w3.org/2000/svg">
<path d="M24.788 10.864C24.7479 10.5843 24.5442 10.3557 24.271 10.2839L23.0759 9.96939C22.83 9.00901 22.4502 8.09368 21.943 7.23873L22.5666 6.16951C22.7088 5.92548 22.6913 5.62004 22.522 5.39392C22.1811 4.93839 21.802 4.50118 21.3953 4.09431C20.9895 3.68837 20.5522 3.30925 20.0956 2.96734C19.8695 2.79803 19.564 2.78045 19.3199 2.9229L18.2508 3.54653C17.3959 3.03925 16.4806 2.65951 15.5202 2.41356L15.2058 1.21857C15.1338 0.945335 14.9054 0.741663 14.6257 0.701491C13.4976 0.539444 12.3223 0.539444 11.1942 0.701491C10.9145 0.741616 10.6861 0.945288 10.6142 1.21857L10.2997 2.41356C9.33939 2.65946 8.42416 3.0392 7.56911 3.54653L6.50008 2.9229C6.25605 2.78054 5.95047 2.79812 5.72434 2.96734C5.26783 3.3092 4.83053 3.68832 4.42464 4.09431C4.01795 4.50114 3.63888 4.93834 3.29791 5.39387C3.12864 5.62 3.11111 5.92543 3.25338 6.16946L3.87691 7.23868C3.36967 8.09373 2.98994 9.00901 2.74403 9.96934L1.549 10.2838C1.27572 10.3557 1.07205 10.5843 1.03197 10.864C0.951066 11.4283 0.910004 12.0055 0.910004 12.5797C0.910004 13.1539 0.951066 13.7311 1.03202 14.2954C1.0721 14.5751 1.27577 14.8036 1.54905 14.8755L2.74408 15.19C2.99003 16.1504 3.36977 17.0657 3.87695 17.9206L3.25342 18.9899C3.11116 19.2339 3.12869 19.5393 3.29795 19.7655C3.63892 20.221 4.018 20.6582 4.42473 21.0651C4.83053 21.471 5.26783 21.8501 5.72439 22.192C5.95052 22.3613 6.256 22.3789 6.50012 22.2365L7.56916 21.6128C8.42411 22.1201 9.33944 22.4999 10.2998 22.7458L10.6143 23.9408C10.6862 24.214 10.9146 24.4177 11.1943 24.4578C11.7583 24.5389 12.3356 24.58 12.91 24.58C13.4844 24.58 14.0617 24.5389 14.6258 24.4579C14.9055 24.4178 15.1339 24.2141 15.2058 23.9408L15.5203 22.7459C16.4806 22.5 17.3958 22.1202 18.2509 21.6129L19.3199 22.2366C19.564 22.379 19.8696 22.3614 20.0957 22.1921C20.5522 21.8503 20.9895 21.4711 21.3954 21.0652C21.802 20.6583 22.1811 20.2211 22.5221 19.7656C22.6914 19.5395 22.7089 19.234 22.5666 18.99L21.9431 17.9208C22.4503 17.0657 22.8301 16.1505 23.076 15.1901L24.271 14.8756C24.5443 14.8038 24.748 14.5752 24.788 14.2955C24.869 13.7312 24.91 13.154 24.91 12.5798C24.91 12.0057 24.8689 11.4283 24.788 10.864ZM12.91 20.0612C8.78481 20.0612 5.42875 16.7052 5.42875 12.58C5.42875 8.45476 8.78481 5.0987 12.91 5.0987C17.0352 5.0987 20.3913 8.45476 20.3913 12.58C20.3913 16.7052 17.0352 20.0612 12.91 20.0612Z" fill="#FF9900"/>
<path d="M12.9108 6.5047C9.56101 6.5047 6.83578 9.22992 6.83578 12.5797C6.83578 15.9294 9.56101 18.6547 12.9108 18.6547C16.2606 18.6547 18.9858 15.9294 18.9858 12.5797C18.9858 9.22992 16.2606 6.5047 12.9108 6.5047ZM16.4205 11.5706L12.6548 15.3362C12.523 15.4681 12.3442 15.5422 12.1577 15.5422C11.9712 15.5422 11.7923 15.4681 11.6605 15.3362L9.77766 13.4534C9.50306 13.1789 9.50306 12.7336 9.77766 12.459C10.0522 12.1845 10.4974 12.1845 10.772 12.459L12.1577 13.8447L15.4261 10.5763C15.7007 10.3017 16.1459 10.3017 16.4205 10.5763C16.695 10.8508 16.695 11.296 16.4205 11.5706Z" fill="#FF9900"/>
</svg>
