<svg width="40" height="40" viewBox="0 0 40 40" fill="none" xmlns="http://www.w3.org/2000/svg">
<path fill-rule="evenodd" clip-rule="evenodd" d="M9.15866 4.39473C7.76295 5.37065 6.50085 6.52451 5.40524 7.8234C9.88242 7.40774 15.5706 8.08646 22.1744 11.3884C29.2264 14.9143 34.905 15.0335 38.857 14.2712C38.4984 13.1855 38.0469 12.142 37.5122 11.1501C32.9882 11.6272 27.1884 10.9956 20.4293 7.61617C16.1372 5.47011 12.3537 4.58608 9.15866 4.39473ZM34.8695 7.38854C31.2968 3.39685 26.1049 0.884766 20.3263 0.884766C18.6293 0.884766 16.9827 1.10145 15.413 1.50862C17.539 2.0887 19.7974 2.93735 22.1744 4.12587C27.1231 6.60016 31.3955 7.39684 34.8695 7.38854ZM39.7019 18.0821C34.9275 19.0249 28.3345 18.8313 20.4293 14.8787C13.0388 11.1834 7.1565 11.2299 3.18932 12.1116C2.98454 12.157 2.78459 12.2048 2.58947 12.2546C2.07007 13.3842 1.65547 14.5721 1.35798 15.8056C1.67571 15.7207 2.00403 15.64 2.34278 15.5647C7.15566 14.4952 13.9559 14.5416 22.1744 18.6509C29.565 22.3462 35.4471 22.2996 39.4144 21.418C39.5503 21.3879 39.6843 21.3566 39.816 21.3245C39.8304 21.0169 39.8376 20.7073 39.8376 20.3961C39.8376 19.6132 39.7916 18.841 39.7019 18.0821ZM39.1789 25.442C34.4508 26.2686 28.0498 25.9514 20.4293 22.1412C13.0388 18.4459 7.1565 18.4925 3.18932 19.3741C2.30872 19.5697 1.51655 19.808 0.817739 20.0596C0.815833 20.1715 0.81488 20.2837 0.81488 20.3961C0.81488 31.1719 9.5504 39.9075 20.3263 39.9075C29.3572 39.9075 36.9551 33.772 39.1789 25.442Z" fill="#FF9900"/>
</svg>
