<svg width="40" height="40" viewBox="0 0 40 40" fill="none" xmlns="http://www.w3.org/2000/svg">
<path fill-rule="evenodd" clip-rule="evenodd" d="M19.7325 39.9069C30.5079 39.9069 39.2431 31.1717 39.2431 20.3963C39.2431 9.62093 30.5079 0.885742 19.7325 0.885742C8.9571 0.885742 0.221924 9.62093 0.221924 20.3963C0.221924 31.1717 8.9571 39.9069 19.7325 39.9069ZM25.8191 9.97459C26.1154 8.9222 25.0941 8.29989 24.1614 8.96439L11.1411 18.24C10.1296 18.9606 10.2887 20.3963 11.3801 20.3963H14.8087V20.3698H21.4909L16.0462 22.2909L13.6459 30.8181C13.3496 31.8705 14.3708 32.4928 15.3036 31.8282L28.3239 22.5527C29.3354 21.8321 29.1762 20.3963 28.0849 20.3963H22.8855L25.8191 9.97459Z" fill="#FF9900"/>
</svg>
